<?xml version="1.0" encoding="UTF-8"?>
<svg id="Layer_2" data-name="Layer 2" xmlns="http://www.w3.org/2000/svg" viewBox="0 0 207.8 65.18">
  <defs>
    <style>
      .cls-1 {
        fill: none;
      }

      .cls-1, .cls-2 {
        opacity: .9;
      }

      .cls-2 {
        fill: #222;
      }
    </style>
  </defs>
  <g id="Layer_1-2" data-name="Layer 1">
    <g>
      <path class="cls-2" d="m118.9,11.79c-.94-1.16-2.69-2-5.27-2.59-2.58-.58-5.95-.88-10.09-.88-7.6,0-13.44.84-17.51,2.51-4.06,1.67-7.12,4.43-9.16,8.29h14.63c.71-1.16,1.71-1.99,3-2.47,1.28-.48,3.18-.72,5.69-.72,1.94,0,3.34.26,4.23.79.89.52,1.14,1.22.74,2.08-.58,1.29-3.59,2.03-9.04,2.25-2.69.09-4.9.2-6.61.3-5.19.33-8.84.83-10.95,1.48-2.12.66-4.03,1.66-5.73,3.01-.86.71-1.64,1.53-2.38,2.5-.73.97-1.36,2.03-1.88,3.17-1.58,3.49-1.47,6.1.34,7.83,1.82,1.74,5.32,2.6,10.5,2.6,3.83,0,7.19-.42,10.09-1.28,2.89-.86,5.64-2.22,8.26-4.08-.33.82-.58,1.57-.76,2.32-.17.73-.28,1.41-.3,2.02h14.75c-.54-1.41.15-3.24.15-3.24.16-.48.38-1.04.67-1.68l5.57-12.26c1.47-3.25,2.27-5.75,2.4-7.49.13-1.75-.32-3.23-1.34-4.46m-16.5,14.65c-.05.09-.11.26-.22.48-.94,2.07-2.62,3.74-5.05,4.99-2.44,1.26-5.21,1.88-8.32,1.88-1.65,0-2.79-.27-3.44-.81-.65-.55-.74-1.32-.29-2.31.4-.89,1.07-1.54,2.01-1.97.94-.42,2.49-.72,4.66-.91.57-.05,1.39-.11,2.46-.17,3.68-.24,6.43-.73,8.24-1.46,0,.09-.03.18-.05.29m-27.54,22.45h6.64v-3.7h-6.64v3.7ZM72.87,0l-17.78,24.9L57.57,0h-18.29l-19.15,25.42V0H0v39.86l.02,1.05h23.15l17.29-22.95-2.46,22.95h23.38l4.45-5.24c.02-1.35.38-2.94,1.24-4.84.56-1.26,1.27-2.43,2.08-3.49.8-1.07,1.7-2.01,2.64-2.79,1.88-1.49,3.98-2.6,6.28-3.31l.4-.47h-4.37l1.29-2.44c2.22-4.19,5.6-7.23,10.02-9.04,1.15-.48,2.44-.88,3.86-1.22L96.11,0h-23.25Zm-22.74,48.89h6.65v-3.7h-6.65v3.7Zm-24.98,0h6.65v-3.7h-6.65v3.7Zm92.82,2.55c-.98-1.08-2.54-1.62-4.68-1.62-1.1,0-2.11.14-3.04.43-.94.29-1.85.75-2.73,1.36v-1.52h-6.52v4.03c-.43-.98-1.11-1.8-2-2.48-1.79-1.36-4.31-2.04-7.59-2.04s-5.79.68-7.58,2.04c-1.16.87-1.92,1.99-2.33,3.3v-4.85h-6.64v2.71c-.41-.84-1.1-1.51-2.07-2.01-1.55-.79-3.94-1.2-7.12-1.2-3.38,0-5.84.4-7.38,1.17-.63.33-1.13.72-1.51,1.2v-1.88h-12.94l-2.32,6.65c-.14.39-.26.76-.36,1.12-.11.34-.2.71-.27,1.05-.07-.4-.16-.81-.26-1.18-.09-.38-.21-.75-.33-1.11l-2.33-6.52h-12.82v2.1c-.48-1.83-1.43-3.3-2.88-4.43-2.17-1.7-5.33-2.56-9.46-2.56H0v20h12.8c4.16,0,7.31-.85,9.47-2.54,1.43-1.12,2.38-2.58,2.87-4.4v6.45h6.65v-11.73l5.48,11.73h7.19l5.67-12.2v12.2h6.65v-1.71c.36.37.77.69,1.28.96,1.55.83,3.99,1.24,7.32,1.24,3.74,0,6.44-.42,8.07-1.24.56-.29,1.03-.65,1.41-1.06v1.81h6.64v-4.84c.41,1.33,1.18,2.43,2.33,3.3,1.78,1.36,4.32,2.04,7.58,2.04s5.8-.68,7.59-2.04c.89-.67,1.57-1.51,2-2.48v4.02h6.52v-7.14c0-.81.28-1.44.81-1.9.55-.46,1.3-.69,2.27-.69.87,0,1.47.21,1.82.63.35.42.53,1.16.53,2.25v6.86h6.51v-8.09c0-2.35-.49-4.08-1.49-5.17m-102.06,7.3c-.87.76-2.31,1.14-4.31,1.14h-3.85v-9.73h3.85c1.98,0,3.42.38,4.31,1.14.87.76,1.31,2.01,1.31,3.71s-.44,2.97-1.31,3.73m51.91,2.47c-.38.16-.95.25-1.68.25-.87,0-1.52-.11-1.91-.34-.4-.23-.63-.59-.67-1.11h-6.78s0-2.93,0-2.93c.32.4.73.72,1.23.94,1.11.49,3.27.91,6.46,1.22h.06c.19.01.49.05.88.09,1.98.17,2.97.55,2.97,1.12,0,.34-.2.58-.57.75m7.04-4.1c-.48-.41-1.13-.77-2-1.08-.58-.2-2.57-.44-5.99-.75l-.63-.04c-.18-.03-.46-.05-.81-.08-1.69-.14-2.54-.48-2.54-1.05,0-.35.18-.6.54-.76.36-.17.94-.25,1.7-.25.91,0,1.57.11,1.99.34.4.21.63.57.68,1.07h7.07v2.61Zm18.98,2.67c-.61.61-1.43.9-2.45.9s-1.85-.3-2.46-.9c-.6-.59-.91-1.38-.91-2.38s.31-1.82.91-2.4c.61-.58,1.43-.89,2.46-.89s1.84.3,2.45.89c.61.59.91,1.39.91,2.4s-.3,1.8-.91,2.38m27.18,4.89h5.35v-4.76h-5.35v4.76Zm37.92-53.37c-1.16-1.99-3.96-2.98-8.4-2.98-2.24,0-4.39.27-6.43.81-2.05.56-3.97,1.36-5.77,2.43l.92-2.43h-17.1l-1.23,2.68c.77,1.34,1.11,2.87.98,4.56-.14,1.96-.98,4.59-2.54,8.05l-5.56,12.25c-.26.55-.42.96-.53,1.29,0,0-.3.55-.3,1.39,0,.44.08.96.33,1.51h11.75l7.56-16.38c1.02-2.19,2.04-3.74,3.08-4.65,1.04-.89,2.28-1.36,3.74-1.36,1.36,0,2.2.39,2.52,1.17.31.79.09,1.99-.65,3.59l-.1.22h15.24l1.28-2.77c1.97-4.29,2.37-7.41,1.22-9.39m46.99,1.57c-2.46-3.04-6.94-4.56-13.44-4.56-3.11,0-6.08.32-8.94.97-2.86.65-5.62,1.62-8.28,2.91l1.28-3.07h-16.56l-.24.48c.24.27.44.55.61.86,1.47,2.5,1.1,6.07-1.14,10.93l-1.72,3.73h-4.96l-12.12,26.01h17.39l6-12.86c1.57,1.14,3.4,1.99,5.51,2.56,2.11.57,4.56.84,7.37.84,6.6,0,12.57-1.49,17.88-4.5,5.3-3.02,9.14-7.06,11.51-12.14,2.36-5.05,2.3-9.11-.15-12.14m-18.12,12.14c-1,2.12-2.6,3.82-4.8,5.09-2.22,1.29-4.68,1.92-7.4,1.92s-4.53-.64-5.56-1.92c-1.02-1.27-1.05-2.97-.07-5.09,1.01-2.14,2.62-3.85,4.84-5.13,2.22-1.27,4.67-1.9,7.34-1.9s4.58.63,5.61,1.9c1.02,1.27,1.04,2.99.05,5.13"/>
      <rect class="cls-1" width="207.8" height="65.18"/>
    </g>
  </g>
</svg>