<?xml version="1.0" encoding="UTF-8"?>
<svg id="Layer_2" data-name="Layer 2" xmlns="http://www.w3.org/2000/svg" viewBox="0 0 303.33 85.96">
  <defs>
    <style>
      .cls-1 {
        fill: none;
      }

      .cls-1, .cls-2 {
        opacity: .9;
      }

      .cls-2 {
        fill: #222;
      }
    </style>
  </defs>
  <g id="Layer_1-2" data-name="Layer 1">
    <g>
      <path class="cls-2" d="m247.16,42.25c-.08,0-.18-.09-.55-.29.09-1.01.23-2.16.27-3.32.19-5.27-.98-9.87-5.02-13.81-5.24-5.11-6.91-7.1-7.78-8.75-.39-.74-.58-1.3-.88-2.09-2.2-5.91-1.14-9.57-2.27-9.89-1.02-.29-2.84,2.42-3.58,4.76-.58,1.86-.48,3.5-.35,4.47-1.32-.62-2.9-1.65-3.89-3.39-2.35-4.15.74-8.76-.78-9.76-1.42-.93-5.89,1.94-7.83,6.07-1.51,3.22-1.07,6.34-.79,7.75-.91-.62-2.18-1.56-3.58-2.86-1.35-1.26-1.94-2.02-2.57-1.87-1.05.25-1.26,2.83-1.31,3.44-.14,1.66-.03,4.74,2.31,8.62-1.22.17-4.15.72-6.92,3.02-2.55,2.11-3.66,4.6-4.09,5.76-.41-.39-3.02-2.81-5.98-2.16-1.82.4-2.95,1.67-4.08,3.42-3.66,5.7-4.84,12-3.16,18.63.03.12.17.55.42,1.09.63,1.37,1.74,2.96,2.17,2.8.41-.15.08-1.86-.09-3.13-.28-2-1.17-10.38,2.45-14.36.25-.27,2.03-1.77,3.85-1.36,2.91.65,4.97,6.04,3.35,9.99-.95,2.32-2.92,3.53-3.83,4.01-.59-.4-1.57-1.19-2.31-2.52-1.21-2.17-.93-4.29-.81-4.98-1.55,3.56-1.01,6.27-.23,9.11.45,1.62.77,3.53.34,5.09-2.05,7.3-.18,11.13,7.02,13.34,2.82.86,9.98,3.65,18.57.94,1.98-.63,4.88-1.81,7.96-4.11-.77,1.48-2.5,4.24-5.79,6-2.15,1.15-3.97,1.34-6.33,1.58-6.42.66-11.71-1.1-14.78-2.15-.97-.34-1.76-.65-2.27-.85-.58.79-1.55,2.39-1.55,4.47,0,3.2,2.31,5.39,3.48,6.49,5.08,4.81,12.74,4.63,14.77,4.51,14.1-.79,24.61-13.75,25.6-15.82.81-1.7,1.76-2.38,3.62-2.54,1.56-.14,2.97-.54,4.23-1.17,3.22-1.62,5-4.69,5.28-5.29.84-1.75,1.06-3.39,1.09-4.54-.14.35-2.35,5.61-7.21,6.26-1.57.21-2.92-.12-3.85-.47,1.09-4.24,5.11-9.65,8.35-11.42,2.62-1.43,4.41-.95,5.34,1.86.56,1.67.83,3.63.58,5.35-.66,4.41-4.37,7.7-6.53,9.7-1.54,1.42-2.79,2.28-2.57,2.78.27.57,2.34.3,3.89-.31.39-.15,2.01-.77,4.04-3.12,3.58-4.16,5.37-9.1,5.56-14.56.3-8.8-2.52-11.41-11-10.38m-14.78-12.01c1.89,1.24,4.39,2.92,5.82,6.16,1.97,4.45.58,8.86.34,9.63-.82,2.69-2.35,5.43-4.3,7.43-1.85,1.89-2.67,3.71-2.68,6.21,0,1.5-.25,3-.5,4.49-.41,2.52-2.49,9.3-7.31,13.64-8.63,7.76-21.46,4.25-22.22,4.03-3.56-.81-6.23-2.83-6.7-5.36-.09-.48-.12-1.1.04-1.84.13-.39.26-.77.39-1.15,10.32,4.82,20.94,3.8,26.18-.79,1.26-1.1,2.76-2.95,3.95-4.96,2.27-3.84,4.26-9.82,2.4-11.31-.89-.71-2.67-.38-3.65.38-.08.06-1.08.86-.91,1.61.12.52.69.55.98,1.08.45.84-.29,2.05-.56,2.49-2,3.27-7.29,5-7.29,5-1.67.55-7.34,2.25-14.76.81-3.28-.64-6.31-1.27-8.33-3.88-.36-.46-1.55-2.04-1.73-4.32-.19-2.38.89-4.15,1.52-5.45,1-2.04,2.45-3.85,4.3-5.4,2.01-1.67,2.57-3.22,1.57-5.85-1.35-3.55-.51-7.99,1.05-10.48.55-.87,1.51-2,3.99-3.29,6.85-3.56,18.92-5.07,28.38,1.13"/>
      <path class="cls-2" d="m53.17,85.58h-7.62l-7.53-20.01H12.36l-7.56,20.01H0L22.81,30.28h7.52l22.84,55.3Zm-16-22.28l-11.96-31.74-11.99,31.74h23.96Z"/>
      <polygon class="cls-2" points="113.5 85.54 105.43 85.54 101.14 32.11 86.03 85.54 80.65 85.54 65.17 32.11 61.25 85.54 53.59 85.54 62.53 30.3 68.38 30.16 83.55 80.02 98.87 30.16 104.57 30.3 113.5 85.54"/>
      <rect class="cls-2" x="117.92" y="30.29" width="5.38" height="55.31"/>
      <path class="cls-2" d="m155.07,63.84h23.4c-2.56,12.59-12.88,21.72-24.84,21.72-3.71,0-7.33-.89-10.71-2.63-.49-.23-1.05-.53-1.54-.82l-.3-.2c-.26-.13-.53-.3-.85-.59-.49-.23-.95-.62-1.35-.95-6.67-5.16-10.65-13.54-10.65-22.41,0-15.25,11.4-27.6,25.4-27.6,4.44,0,8.77,1.25,12.58,3.61l.07.1.2.07.03.1.1.03c6.38,4.08,10.84,11.17,12.09,19.06l-5.19-.1c.16-7.53-2.66-13.97-7.62-17.32-.13-.03-.23-.13-.39-.26-.07-.03-.1-.03-.13-.07-.07-.03-.13-.1-.2-.13l-1.41-.72c-1.81-.82-3.74-1.22-5.78-1.22-2.3,0-4.7.53-7.1,1.58-5.36,2.3-10.06,6.9-13.21,12.91-6.47,12.09-4.86,26.16,3.74,31.97.1.07.23.13.36.23.53.36,1.12.69,1.77.95,1.81.82,3.75,1.22,5.78,1.22,2.33,0,4.7-.53,7.1-1.58,5.29-2.27,9.99-6.83,13.21-12.85.33-.59.69-1.38,1.02-2.14h-15.57v-1.97Z"/>
      <path class="cls-2" d="m302.77,70.84c.03,2.41-.54,14.29-17.17,14.76h-1.01c-13.42,0-20.38-7.76-22.49-15.26h6.63c1.37,3.58,5.32,12.99,16.47,12.99h.54c7.76-.23,11.65-3.25,11.51-9.04-.14-5.89-3.72-9.31-14.83-14.02-.27-.1-.5-.2-.74-.3-.33-.14-.7-.3-1.07-.4-9.47-3.71-16.7-7.16-16.9-14.79-.04-1.41.17-6.29,3.85-10.08,2.88-2.91,7.16-4.42,12.72-4.42,18.47,0,22.32,12.62,23.06,16.4h-6.09c-1.21-4.35-5.22-13.76-17.51-13.76-6.03,0-10.91,3.75-10.91,8.33,0,5.49,3.58,9.2,12.69,13.19l.03.03.13.03c.91.37,1.81.7,2.74,1.07,8.94,3.38,18.15,6.9,18.35,15.27"/>
      <path class="cls-2" d="m260.59,22.64h0s-.75.01-.75.01v-.03c0-3.17-1.67-3.22-3.17-3.22v3.25h-.68v-6.52h2.08c1.23,0,2.52.46,2.52,1.57,0,.83-.86,1.6-2.01,1.67,1.4.43,2.01,1.57,2.01,3.26m-2.46-3.45c.22,0,.45-.05.67-.14.82-.35,1.24-1.21.93-1.92-.21-.49-.73-.75-1.29-.76h-1.78v2.83h.8s.66,0,.66,0Z"/>
      <path class="cls-2" d="m258.19,25.97c-3.53,0-6.39-2.87-6.39-6.39s2.87-6.39,6.39-6.39,6.39,2.87,6.39,6.39-2.87,6.39-6.39,6.39m0-12.37c-3.3,0-5.98,2.68-5.98,5.98s2.68,5.98,5.98,5.98,5.98-2.68,5.98-5.98-2.68-5.98-5.98-5.98"/>
      <rect class="cls-1" y="0" width="303.33" height="85.96"/>
    </g>
  </g>
</svg>