<?xml version="1.0" encoding="UTF-8"?>
<svg id="Layer_2" data-name="Layer 2" xmlns="http://www.w3.org/2000/svg" viewBox="0 0 263.62 87.39">
  <defs>
    <style>
      .cls-1 {
        fill: none;
      }

      .cls-1, .cls-2 {
        opacity: .9;
      }

      .cls-2 {
        fill: #222;
      }
    </style>
  </defs>
  <g id="Layer_1-2" data-name="Layer 1">
    <g>
      <path class="cls-2" d="m91.64,68.7c-1.67-1.1-2.84-2.58-3.51-4.44l3.94-2.33c1.68,6.31,13.76,3.93,8.83-1.22-3.87-2.1-12.13-2.71-11.74-9.07.04-9.14,14.01-9.54,16.84-1.79l-4.01,2.29c-2.06-6.12-12.5-2.11-6.29,1.9,1.74.79,5.43,1.75,7.06,2.69,3.78,1.61,5.17,6.77,2.81,10.14-2.81,4.2-10.1,4.36-13.94,1.83"/>
      <path class="cls-2" d="m146.44,59.35v6.09h10.5v4.44h-15.19v-25.08h15.01c-.07,5.54-6.64,4.37-10.32,4.44v5.7h9.42v4.41h-9.42Z"/>
      <path class="cls-2" d="m218.13,59.35v6.09h10.5v4.44h-15.19v-25.08h15.01c-.07,5.54-6.64,4.37-10.32,4.44v5.7h9.42v4.41h-9.42Z"/>
      <path class="cls-2" d="m121.29,69.89v-25.08c2.43-.25,4.68,1.54,4.66,4.04v21.04h-4.66Z"/>
      <path class="cls-2" d="m184.45,56.63h13.51c1.58,12.91-15.76,18.69-23.06,8.42-9.8-14.15,10.82-28.95,20.99-15.01l-3.69,2.87c-4.12-6.79-15.39-3.42-15.12,4.51-.37,8.39,12.44,11.5,15.62,3.65-3.59-.07-8.82,1.04-8.24-4.44"/>
      <path class="cls-2" d="m257.31,68.17l-3.94-6.95h-4.66v8.67h-4.69v-25.08c4.01.36,12.55-1.26,15.69,2.08,4.15,3.63,3.32,10.78-1.54,13.29l5.45,9.71c-1.97-.06-5.27.53-6.31-1.72m-8.59-18.92v7.49c3.01-.09,9.34,1.02,9.24-3.73.06-4.84-6.15-3.65-9.24-3.76"/>
      <path class="cls-2" d="m87.92,26.1c-.06-.42-.18-.82-.27-1.23l-.14.02c-.01.09-.03.19-.03.28.04,2.01-.9,3.45-2.59,4.46-1.91,1.14-4.06,1.55-6.2,2.01-1.74.37-3.51.61-5.23,1.03-2.12.51-4.23,1.08-6.31,1.75-2.22.71-4.25,1.83-6.1,3.26-2.7,2.09-4.63,4.76-5.92,7.91-.15.36-.28.74-.46,1.23.19-.11.26-.12.31-.17,2.17-2.41,5.02-3.63,8.02-4.53,2.2-.66,4.46-1.14,6.7-1.66,2.13-.5,4.27-.94,6.4-1.42,2.45-.55,4.84-1.28,7.06-2.49,1.69-.92,3.12-2.13,4.04-3.88,1.09-2.09,1.08-4.3.73-6.55m-36.64,27.87c.31.47.64.93.96,1.39.08-.06.11-.07.11-.08,0-.13,0-.27,0-.4-.16-2.49.14-4.91.99-7.26.85-2.33,2.1-4.46,3.39-6.57,1.48-2.41,3.02-4.78,3.97-7.47.74-2.07,1.12-4.2.84-6.39-.16-1.22-.36-2.45-.68-3.64-.29-1.07-.76-2.08-1.15-3.12-.06.02-.11.04-.17.06,0,.08,0,.17,0,.25.38,2.77-.18,5.39-1.27,7.93-1.08,2.51-2.67,4.7-4.25,6.89-1.59,2.19-3.21,4.36-4.26,6.88-.86,2.06-1.09,4.19-.67,6.38.36,1.87,1.18,3.55,2.21,5.14M9.05,24.79c2.09,1.58,4.31,2.99,6.5,4.42,3.17,2.07,6.43,4.01,9.37,6.43,2.12,1.74,4.06,3.64,5.5,6,.67,1.08,1.24,2.23,1.86,3.36,0-.11.03-.25,0-.36-.47-1.59-.87-3.2-1.45-4.76-1.35-3.63-3.45-6.8-6.18-9.55-2.68-2.71-5.8-4.85-8.99-6.91-2.71-1.76-5.45-3.46-7.96-5.52C4.43,15.24,1.9,12.04.52,8.01c-.12-.35-.25-.71-.37-1.06-.12.17-.16.31-.15.46.09,1.44.13,2.88.3,4.31.28,2.27,1.15,4.34,2.33,6.28,1.65,2.72,3.9,4.9,6.4,6.79m64.68,6.22c2.38-1.43,4.02-3.5,4.87-6.14.49-1.52.79-3.1.75-4.7-.07-2.78-.22-5.56-.35-8.34-.12-2.67-.17-5.33.5-7.94.1-.42.22-.83.35-1.36-.15.14-.24.18-.27.25-.83,1.63-1.75,3.21-2.45,4.89-.97,2.32-1.59,4.75-1.91,7.25-.32,2.47-.61,4.95-.87,7.43-.21,2.01-.33,4.03-.92,5.99-.33,1.09-.81,2.08-1.53,2.94-.36.43-.81.79-1.22,1.19.03.05.05.09.08.14.99-.53,2.02-1.01,2.98-1.59m6.38-6.75c.2-.64.61-1.12,1.09-1.56.35-.32.69-.64,1.05-.95,1.23-1.07,2.46-2.15,3.71-3.2,1.15-.96,2.25-3.64,1.48-5.26-.35.46-.62.94-1.01,1.29-.8.72-1.63,1.42-2.5,2.05-2.42,1.76-3.81,4.09-4.05,7.09-.02.24-.02.49-.04.86.15-.18.24-.24.27-.33m-64.28-3.32c1.11,2.05,2.65,3.71,4.44,5.17.62.51,1.29.96,1.93,1.43l.08-.11c-.35-.5-.7-.99-1.04-1.49-1.27-1.86-2.2-3.89-2.51-6.11-.35-2.55-.42-5.14-.67-7.7-.18-1.84-.35-3.68-.69-5.5-.4-2.18-1.17-4.27-2.07-6.31-.05-.1-.04-.23-.06-.34-.07.06-.14.13-.21.19.26,2.4-.11,4.77-.43,7.14-.33,2.48-.67,4.95-.51,7.46.14,2.17.67,4.24,1.72,6.16m52.74,20.91c-2.02.56-4.05,1.09-6.05,1.74-2.08.68-4.05,1.63-5.75,3.05-1.77,1.48-2.91,3.34-3.21,5.64-.4,3.05.36,5.92,1.66,8.72.05-.13.11-.27.16-.4.36-.98.64-2,1.09-2.94,1.18-2.48,3.01-4.46,5.16-6.11,2.36-1.81,4.81-3.49,7.22-5.23,1.97-1.42,3.83-2.96,5.31-4.91.3-.39.56-.82.83-1.23-.52.05-.94.22-1.37.34-1.68.46-3.37.88-5.05,1.35m-44.04-2.42c2.03.72,3.93,1.72,5.61,3.14-.04-.09-.07-.18-.11-.26-.9-1.65-2.15-3.03-3.57-4.24-2.34-1.98-5.03-3.36-7.81-4.57-3.56-1.56-7.17-3.02-10.71-4.61-2.34-1.05-4.49-2.42-6.38-4.18-.11-.1-.25-.18-.41-.29-.04.15-.06.21-.06.28-.13,2.49.49,4.73,2.25,6.57,1.75,1.84,3.98,2.91,6.32,3.72,1.92.66,3.88,1.2,5.83,1.77,1.23.36,2.49.63,3.73,1,1.78.53,3.57,1.05,5.32,1.67m23.29,11.06c-2.96-3.82-6.05-7.54-9.11-11.28-3.2-3.9-6.3-7.87-8.58-12.41-.95-1.9-1.76-3.85-2.31-5.9-.16-.58-.32-1.16-.48-1.74-.09.07-.11.12-.11.17-.08,4.66.42,9.24,1.78,13.71.98,3.22,2.42,6.2,4.3,8.98,1.9,2.8,4.18,5.26,6.53,7.68,1.35,1.39,2.75,2.75,4.09,4.15.6.63,1.13,1.34,1.68,2.02.61.75,1.23,1.49,1.79,2.26,1.9,2.59,3.35,5.42,4.2,8.51.45,1.63.73,3.3,1,4.97.2,1.24.25,2.49.38,3.9.11-.27.19-.4.23-.54.5-1.94.89-3.89,1-5.9.18-3.23-.29-6.35-1.37-9.39-1.18-3.33-2.88-6.4-5.03-9.17m1.31,12.73c-1.7-3.29-4-6.14-6.69-8.67-4.01-3.76-8.52-6.83-13.33-9.45-2.9-1.57-5.87-3-8.82-4.47-.97-.48-1.97-.88-3.04-1.36-.04.23-.08.36-.08.49-.07,1.73.18,3.42.73,5.06.9,2.7,2.45,5,4.31,7.11,2.83,3.23,6.18,5.86,9.57,8.46,3.33,2.55,6.69,5.06,9.96,7.68,2.48,1.98,4.74,4.19,6.47,6.89,1.28,1.99,2.08,4.14,2.05,6.54,0,.16-.05.29-.06.45-.32-.53-.53-1.07-.8-1.57-1.42-2.7-3.37-5.01-5.48-7.2-3.3-3.42-7-6.37-10.9-9.06-.52-.36-1.06-.69-1.6-1.04.05.2.16.3.28.39,2.03,1.65,3.5,3.72,4.38,6.17.85,2.37,1.12,4.85,1.25,7.34.1,1.98.16,3.97.64,5.91.51,2.06,1.72,3.51,3.81,4.08,1.93.53,3.91.46,5.86.17,2.22-.32,3.24-1.88,2.78-4.06-.03-.15-.04-.31-.01-.45,0-.02.01-.05.02-.07.24-1.06.51-2.14.73-3.2.62-2.96.77-5.94.32-8.95-.38-2.54-1.15-4.94-2.32-7.21"/>
      <rect class="cls-1" y="0" width="263.62" height="87.39"/>
    </g>
  </g>
</svg>