<?xml version="1.0" encoding="UTF-8"?>
<svg id="Layer_2" data-name="Layer 2" xmlns="http://www.w3.org/2000/svg" viewBox="0 0 156.63 162.86">
  <defs>
    <style>
      .cls-1 {
        fill: none;
      }

      .cls-1, .cls-2 {
        opacity: .9;
      }

      .cls-2 {
        fill: #222;
      }
    </style>
  </defs>
  <g id="Layer_1-2" data-name="Layer 1">
    <g>
      <path class="cls-2" d="m133.4,158.43h-.23v-4.42c0-1.04-.19-2.04-.56-3.01-.37-.96-.9-1.83-1.59-2.59.69-.77,1.21-1.63,1.59-2.6.37-.96.56-1.96.56-3.01v-2.68c0-1.15-.22-2.25-.66-3.28-.44-1.03-1.04-1.92-1.79-2.68-.76-.76-1.65-1.35-2.68-1.79-1.03-.44-2.12-.66-3.27-.66h-10.05v26.71h-2.06v-4.38h-10.67v-5.52h7.99v-5.6h-7.99v-5.56h10.67v-5.6h-16.23v26.67h-1.94v-4.38h-10.67v-5.52h7.99v-5.6h-7.99v-5.56h10.67v-5.6h-16.23v26.67h-6.8c.57-.35,1.1-.76,1.57-1.23.76-.76,1.36-1.64,1.8-2.66.44-1.01.66-2.1.66-3.26,0-1.04-.18-2.04-.53-2.99-.36-.95-.89-1.82-1.61-2.62.71-.77,1.25-1.63,1.61-2.58.35-.95.53-1.94.53-2.99,0-1.15-.22-2.24-.66-3.26-.44-1.02-1.04-1.9-1.8-2.66-.76-.76-1.64-1.35-2.67-1.79-1.02-.44-2.11-.66-3.26-.66h-10.19v26.73c-.53.09-1,.3-1.37.59-.51.4-.83.95-.83,1.57v2.21h81.52v-2.21c0-1.23-1.27-2.22-2.84-2.22m-64.3-5.2c-.55.55-1.21.82-1.99.82h-4.64v-5.56h4.64c.77,0,1.44.27,1.99.8.55.53.83,1.19.83,1.98s-.27,1.42-.83,1.96m0-11.14c-.55.53-1.21.79-1.99.79h-4.64v-5.52h4.64c.77,0,1.44.26,1.99.79.55.53.83,1.18.83,1.97s-.27,1.44-.83,1.97m51.17-4.77h4.51c.8,0,1.47.27,2.01.8.54.54.81,1.2.81,2v2.68c0,.8-.27,1.46-.81,2-.54.54-1.21.8-2.01.8h-4.51v-8.28Zm0,13.88h4.51c.8,0,1.47.27,2.01.8.54.54.81,1.2.81,2v4.42h-7.33v-7.22Z"/>
      <path class="cls-2" d="m24.16,29.3c-12.04,6.99-17.56,17.22-19.5,21.36,2.29-4.85,5.36-9.25,9.05-13.06,8.51-8.79,20.32-14.38,33.42-14.79-4.94.13-13.76,1.14-22.97,6.49"/>
      <path class="cls-2" d="m90.22,26.21c-1.6,0-3.18-.02-4.75-.07v26.32h5.91v-26.26c-.38,0-.77,0-1.16,0"/>
      <path class="cls-2" d="m111.07,40.08c-.47-1.08-1.1-2.02-1.91-2.82-.8-.8-1.75-1.44-2.83-1.9s-2.24-.7-3.47-.7h-.31c-.82,0-1.51-.28-2.08-.85-.57-.56-.86-1.27-.86-2.11s.29-1.5.86-2.08c.57-.58,1.27-.87,2.09-.87h8.96v-3.96c-4.95.69-10.28,1.15-15.86,1.33-.51.63-.93,1.33-1.26,2.1-.47,1.08-.7,2.23-.7,3.46s.23,2.38.7,3.48c.47,1.09,1.1,2.04,1.9,2.84.8.8,1.74,1.44,2.82,1.9,1.08.47,2.23.7,3.46.7h.31c.82,0,1.52.28,2.1.85.58.57.88,1.26.88,2.08s-.29,1.56-.88,2.12-1.28.85-2.1.85h-8.93v5.95h8.93c1.22,0,2.38-.23,3.46-.7,1.08-.47,2.02-1.1,2.82-1.9.8-.8,1.44-1.75,1.9-2.85.47-1.09.7-2.25.7-3.48s-.24-2.38-.71-3.46"/>
      <path class="cls-2" d="m127.27,22.84v11.82h-7.4v-11.33c-1.89.41-3.86.77-5.91,1.1v28.04h5.91v-11.86h7.4v11.86h5.91v-29.63h-5.91Z"/>
      <path class="cls-2" d="m80.53,68.18v2.78c0,3.6-1.4,6.99-4.19,10.18-.44.51-.98,1.13-1.63,1.85-.65.73-1.42,1.56-2.29,2.51v11.38h-7.35v-11.38c-.87-.94-1.63-1.78-2.29-2.51-.65-.73-1.2-1.34-1.63-1.85-2.8-3.2-4.19-6.59-4.19-10.18v-11h7.35v11c0,.8.18,1.62.54,2.45.33.84.94,1.8,1.85,2.89l2.07,2.29,2.02-2.29c.87-.98,1.49-1.94,1.85-2.89.36-.83.55-1.65.55-2.45v-11h7.35v8.22Z"/>
      <path class="cls-2" d="m106.62,71.06v14.76c0,1.53-.29,2.96-.87,4.3-.58,1.34-1.37,2.51-2.37,3.51-1,1-2.17,1.79-3.51,2.37-1.34.58-2.78.87-4.3.87h-1.47c-1.53,0-2.96-.29-4.3-.87-1.34-.58-2.52-1.37-3.51-2.37-1-1-1.79-2.17-2.37-3.51-.58-1.34-.87-2.78-.87-4.3v-14.76c0-1.52.29-2.97.87-4.33.58-1.36,1.37-2.54,2.37-3.54,1-1,2.17-1.79,3.51-2.37,1.34-.58,2.78-.87,4.3-.87h1.47c1.53,0,2.96.29,4.3.87,1.34.58,2.51,1.37,3.51,2.37s1.79,2.18,2.37,3.54c.58,1.36.87,2.8.87,4.33m-7.35,14.76v-14.76c0-1.05-.36-1.93-1.07-2.64-.71-.71-1.6-1.06-2.66-1.06h-1.48c-1.02,0-1.89.35-2.6,1.06-.71.71-1.07,1.59-1.07,2.64v14.76c0,1.02.36,1.88,1.07,2.59.71.71,1.58,1.06,2.6,1.06h1.48c1.06,0,1.95-.35,2.66-1.06.71-.71,1.07-1.57,1.07-2.59"/>
      <path class="cls-2" d="m133.15,71.06v14.76c0,1.52-.29,2.96-.87,4.3-.58,1.34-1.37,2.51-2.37,3.51-1,1-2.17,1.79-3.51,2.37-1.34.58-2.78.87-4.3.87h-1.42c-1.53,0-2.97-.29-4.33-.87-1.36-.58-2.54-1.37-3.54-2.37-1-1-1.79-2.17-2.37-3.51-.58-1.34-.87-2.78-.87-4.3v-25.87h7.35v25.87c0,1.02.35,1.88,1.07,2.59.71.71,1.6,1.06,2.66,1.06h1.42c1.02,0,1.9-.35,2.63-1.06.73-.71,1.1-1.57,1.1-2.59v-25.87h7.35v11.11Z"/>
      <path class="cls-2" d="m38.58,119.06c-.43-.09-.85-.18-1.28-.28.46.13.89.22,1.28.29t0,0"/>
      <polygon class="cls-2" points="96.66 127.71 86.66 127.71 81.45 127.71 81.45 101.57 86.66 101.57 96.66 101.57 96.66 106.82 86.66 106.82 86.66 112.03 94.15 112.03 94.15 117.28 86.66 117.28 86.66 122.46 96.66 122.46 96.66 127.71"/>
      <path class="cls-2" d="m115.89,122.42v5.29h-5.21v-5.29c0-.75-.25-1.37-.76-1.87-.51-.5-1.13-.75-1.88-.75h-4.23v7.91h-5.21v-26.18h9.42c1.08,0,2.1.21,3.07.62.97.41,1.8.97,2.51,1.68.71.71,1.27,1.54,1.68,2.51.41.96.62,1.99.62,3.07v2.51c0,.98-.17,1.92-.52,2.82-.35.9-.84,1.71-1.49,2.43.64.72,1.14,1.53,1.49,2.43.35.9.52,1.84.52,2.82m-5.21-10.5v-2.51c0-.75-.25-1.37-.76-1.87-.51-.5-1.13-.75-1.88-.75h-4.23v7.76h4.23c.75,0,1.38-.25,1.88-.75.5-.5.76-1.12.76-1.87"/>
      <polygon class="cls-2" points="133.15 127.71 123.15 127.71 117.94 127.71 117.94 101.57 123.15 101.57 133.15 101.57 133.15 106.82 123.15 106.82 123.15 112.03 130.64 112.03 130.64 117.28 123.15 117.28 123.15 122.46 133.15 122.46 133.15 127.71"/>
      <path class="cls-2" d="m38.63,119.07c1.14.24,2.29.44,3.45.59-1.11-.2-2.27-.39-3.45-.59"/>
      <path class="cls-2" d="m83.06,26.06v8.99c0,.65-.03,1.29-.07,1.92-.29,3.6-1.39,7-3.3,10.2l-3.1,5.29h-5.95l-3.1-5.29c-.09-.12-.17-.23-.24-.35-.07-.11-.14-.23-.2-.35-.06.12-.12.24-.2.35-.07.12-.14.24-.2.35l-3.15,5.29h-5.91c-.69-1.14-1.81-2.99-3.15-5.29-1.34-2.3-2.28-4-2.98-5.28-2.86-.05-5.36-1.58-6.78-3.85-.99.12-2.07.3-3.21.57-12.5,3-26.45,15.79-26.45,32.83,0,18.47,14.89,33.45,33.32,33.6h0s0,0,0,0c.28-.39,1.64-2.61,4.2-3.42,1.53-.49,2.95-.3,3.88-.1v10.81c0,1.39.19,2.77.58,4.13.27.94.62,1.85,1.06,2.73.19.4.41.79.64,1.18l.89,1.46.89-1.46c.39-.64.72-1.3,1.02-1.98.27-.62.48-1.26.67-1.92.37-1.37.56-2.74.56-4.13v-10.81h5.21v10.81c0,1.21.14,2.41.43,3.61.04.18.08.35.14.53.37,1.37.93,2.66,1.67,3.9l.89,1.46.88-1.46c.75-1.24,1.31-2.54,1.68-3.9.32-1.19.51-2.39.55-3.6,0-.18.01-.35.01-.53v-10.81h5.21v10.81c0,3.81-.99,7.38-2.97,10.7l-2.74,4.67h-5.25l-2.74-4.67c-.08-.1-.15-.21-.22-.31-.06-.1-.12-.21-.17-.31-.05.1-.11.21-.17.31-.06.1-.12.21-.17.31l-2.78,4.67h-5.21l-2.78-4.67c-.64-1.1-5.64-2.22-12.09-3.36-.02,0-.04,0-.06-.01-1.11-.2-2.27-.39-3.45-.59-.02,0-.03,0-.05,0t0,0c-.43-.09-.85-.18-1.28-.28-.01,0-.02,0-.04,0-10.8-2.59-20.2-8.79-26.85-17.24C3.89,93.25,0,82.8,0,71.45c0-7.34,1.62-14.3,4.54-20.55.04-.08.07-.16.11-.24,2.29-4.85,5.36-9.25,9.05-13.06,8.51-8.79,20.32-14.38,33.42-14.79.15,0,.31,0,.46-.01.21,0,.42,0,.64,0h8.8v12.25c0,1.57.22,3.14.66,4.69.44,1.54,1.07,3.02,1.92,4.42l1.01,1.66,1.01-1.66c.84-1.4,1.48-2.88,1.9-4.42.42-1.55.64-3.11.64-4.69v-11.02c1.9.34,3.87.65,5.91.92v10.1c0,1.57.21,3.14.63,4.69.42,1.54,1.06,3.02,1.9,4.42l1.01,1.66,1.01-1.66c.84-1.4,1.48-2.88,1.91-4.42.42-1.55.63-3.11.63-4.69v-9.35c1.93.16,3.91.28,5.91.36"/>
      <path class="cls-2" d="m149.48,3.96c3.01.6,7.11,3.23,7.15,7.15.04,3.81-3.78,6.12-4.07,6.29-.33.19-1.95,1.11-4.29,1.12-2.98.01-4.94-1.47-6.55-2.32-2.38-1.24-6.14-2.21-12.14-.87,1.96-1.84,3.66-3.3,4.92-4.35,7.46-6.21,10.46-7.06,12.8-7.16.54-.02,1.25-.05,2.18.13"/>
      <path class="cls-2" d="m134.94.19c1.02-.33,2.61-.3,3.6.78,1.32,1.45.48,3.59.37,3.84-.36.86-.95,1.39-1.44,1.83-1.01.9-1.96,1.26-2.53,1.53-1.09.5-2.56,1.43-4.1,3.35,0-1.22.09-2.28.19-3.13.14-1.17.34-2.14.5-2.83.33-1.43.5-2.15.87-2.84.43-.81,1.11-2.07,2.54-2.53"/>
      <path class="cls-2" d="m138.9,18.01c.23.51.36,1.44-.21,2.01-.66.66-1.8.4-2.37,0-.2-.15-.46-.39-.95-1.63-.24-.62-1.08-1.68-1.87-2.16.38,0,.91.02,1.54.1.21.03.92.11,1.85.36,1.03.27,1.33.48,1.52.66.1.09.33.31.48.66"/>
      <rect class="cls-1" width="156.63" height="162.86"/>
    </g>
  </g>
</svg>