<?xml version="1.0" encoding="UTF-8"?>
<svg id="Layer_2" data-name="Layer 2" xmlns="http://www.w3.org/2000/svg" viewBox="0 0 303.33 44.69">
  <defs>
    <style>
      .cls-1 {
        fill: none;
      }

      .cls-1, .cls-2 {
        opacity: .9;
      }

      .cls-2 {
        fill: #222;
      }
    </style>
  </defs>
  <g id="Layer_1-2" data-name="Layer 1">
    <g>
      <polygon class="cls-2" points="10.4 44.02 0 10.27 8.42 10.27 15.94 35.2 23.38 10.27 31.14 10.27 20.83 44.02 10.4 44.02"/>
      <path class="cls-2" d="m40.19,16.51c-.85.85-1.87,1.28-3.06,1.28s-2.21-.43-3.06-1.28c-.85-.85-1.28-1.87-1.28-3.06s.43-2.21,1.28-3.06c.85-.85,1.87-1.28,3.06-1.28s2.21.43,3.06,1.28c.85.85,1.28,1.87,1.28,3.06s-.43,2.21-1.28,3.06m-6.68,3.4h7.23v24.11h-7.23v-24.11Z"/>
      <path class="cls-2" d="m60.17,19.24c2.57,0,4.71.88,6.44,2.65,1.72,1.77,2.58,4.21,2.58,7.33v14.8h-7.23v-13.74c0-1.41-.4-2.5-1.18-3.25s-1.79-1.13-3.01-1.13c-1.38,0-2.47.42-3.28,1.25-.8.84-1.21,2.07-1.21,3.71v13.16h-7.23V10.27h7.23v11.91c1.45-1.96,3.74-2.94,6.9-2.94"/>
      <path class="cls-2" d="m91.65,19.91h7.23v24.11h-7.23v-2.27c-1.7,1.96-4.1,2.94-7.18,2.94s-5.9-1.23-8.15-3.69c-2.25-2.46-3.37-5.47-3.37-9.04s1.12-6.58,3.37-9.04c2.25-2.46,4.97-3.69,8.15-3.69s5.48.98,7.18,2.94v-2.27Zm-9.88,16.34c1.06,1.06,2.44,1.59,4.15,1.59s3.09-.53,4.15-1.59c1.06-1.06,1.59-2.49,1.59-4.29s-.53-3.23-1.59-4.29c-1.06-1.06-2.44-1.59-4.15-1.59s-3.09.53-4.15,1.59c-1.06,1.06-1.59,2.49-1.59,4.29s.53,3.23,1.59,4.29"/>
      <path class="cls-2" d="m118.31,19.24c2.57,0,4.72.88,6.44,2.65,1.72,1.77,2.58,4.21,2.58,7.33v14.8h-7.23v-13.74c0-1.41-.39-2.5-1.18-3.25-.79-.76-1.79-1.13-3.01-1.13-1.38,0-2.48.42-3.28,1.25-.8.84-1.21,2.07-1.21,3.71v13.16h-7.23v-24.11h7.23v2.27c1.45-1.96,3.74-2.94,6.89-2.94"/>
      <path class="cls-2" d="m157.36,10.27c4.6,0,8.41,1.63,11.45,4.89,3.04,3.26,4.56,7.26,4.56,11.98s-1.52,8.72-4.56,11.98c-3.04,3.26-6.85,4.89-11.45,4.89h-13.16V10.27h13.16Zm0,29.51c3.44,0,6.25-1.2,8.44-3.62,2.19-2.41,3.28-5.41,3.28-9.02s-1.09-6.6-3.28-9.02c-2.18-2.41-5-3.62-8.44-3.62h-8.68v25.26h8.68Z"/>
      <path class="cls-2" d="m181.32,33.89c.42,2.15,1.41,3.83,2.97,5.01,1.56,1.19,3.48,1.78,5.76,1.78,3.18,0,5.5-1.17,6.94-3.52l3.57,2.02c-2.35,3.63-5.88,5.45-10.61,5.45-3.83,0-6.94-1.2-9.33-3.59-2.4-2.39-3.59-5.42-3.59-9.09s1.17-6.65,3.52-9.07c2.35-2.41,5.38-3.62,9.11-3.62,3.53,0,6.42,1.25,8.65,3.74,2.24,2.49,3.35,5.49,3.35,8.99,0,.61-.05,1.24-.15,1.88h-20.2Zm8.34-10.65c-2.25,0-4.12.64-5.59,1.91-1.48,1.27-2.4,2.96-2.75,5.09h16.1c-.35-2.28-1.25-4.02-2.7-5.21-1.45-1.19-3.13-1.78-5.06-1.78"/>
      <path class="cls-2" d="m218.49,19.28c2.83,0,5.09.89,6.8,2.68,1.7,1.78,2.55,4.2,2.55,7.26v14.8h-4.19v-14.56c0-1.96-.53-3.48-1.59-4.56-1.06-1.08-2.52-1.61-4.39-1.61-2.09,0-3.78.65-5.06,1.95-1.29,1.3-1.93,3.3-1.93,6v12.78h-4.19v-24.11h4.19v3.47c1.7-2.73,4.31-4.1,7.81-4.1"/>
      <path class="cls-2" d="m246.79,23.96h-6.41v13.07c0,1.19.23,2.03.7,2.53.47.5,1.18.76,2.14.77.97.02,2.15,0,3.57-.07v3.76c-3.66.48-6.35.18-8.05-.89-1.7-1.08-2.56-3.11-2.56-6.1v-13.07h-4.77v-4.05h4.77v-5.5l4.19-1.25v6.75h6.41v4.05Z"/>
      <path class="cls-2" d="m270.51,19.91h4.2v24.11h-4.2v-4.15c-2.09,3.18-5.13,4.77-9.11,4.77-3.38,0-6.25-1.23-8.63-3.69-2.38-2.46-3.57-5.46-3.57-8.99s1.19-6.53,3.57-8.99c2.38-2.46,5.25-3.69,8.63-3.69,3.99,0,7.02,1.59,9.11,4.77v-4.15Zm-8.58,20.68c2.44,0,4.48-.83,6.12-2.48,1.64-1.65,2.46-3.71,2.46-6.15s-.82-4.49-2.46-6.15c-1.64-1.65-3.68-2.48-6.12-2.48s-4.44.83-6.08,2.48c-1.64,1.66-2.46,3.71-2.46,6.15s.82,4.49,2.46,6.15c1.64,1.66,3.66,2.48,6.08,2.48"/>
      <rect class="cls-2" x="281.07" y="8.82" width="4.2" height="35.2"/>
      <path class="cls-2" d="m298.87,10l-1.55-2.66h-1.64v2.66h-.92V3.05h2.78c.59,0,1.1.21,1.53.63.42.42.64.93.64,1.52,0,.45-.13.86-.4,1.23-.27.37-.61.63-1.04.78l1.64,2.78h-1.02Zm-3.19-6.08v2.59h1.85c.34,0,.64-.13.88-.38.24-.25.36-.56.36-.92s-.12-.66-.36-.91c-.24-.25-.53-.38-.88-.38h-1.85Z"/>
      <path class="cls-2" d="m296.74,13.19c-3.64,0-6.59-2.96-6.59-6.59s2.96-6.6,6.59-6.6,6.59,2.96,6.59,6.6-2.96,6.59-6.59,6.59m0-12.46c-3.23,0-5.86,2.63-5.86,5.86s2.63,5.86,5.86,5.86,5.86-2.63,5.86-5.86-2.63-5.86-5.86-5.86"/>
      <rect class="cls-1" y="0" width="303.33" height="44.69"/>
    </g>
  </g>
</svg>