<?xml version="1.0" encoding="UTF-8"?>
<svg id="Layer_2" data-name="Layer 2" xmlns="http://www.w3.org/2000/svg" viewBox="0 0 224.56 54.72">
  <defs>
    <style>
      .cls-1 {
        font-family: Cremona-Regular, Cremona;
        font-size: 6.93px;
      }

      .cls-1, .cls-2, .cls-3 {
        opacity: .9;
      }

      .cls-1, .cls-3 {
        fill: #222;
      }

      .cls-2 {
        fill: none;
      }
    </style>
  </defs>
  <g id="Layer_1-2" data-name="Layer 1">
    <g>
      <path class="cls-3" d="m28.33,0c4.72,0,8.85.78,12.38,2.35,3.53,1.57,6.46,3.63,8.8,6.19,2.33,2.56,4.1,5.48,5.29,8.76,1.19,3.28,1.79,6.64,1.79,10.06s-.6,6.78-1.79,10.07c-1.19,3.28-2.96,6.2-5.29,8.76-2.34,2.56-5.27,4.62-8.8,6.19-3.53,1.57-7.66,2.35-12.38,2.35s-8.86-.78-12.41-2.35c-3.55-1.57-6.51-3.63-8.87-6.19-2.36-2.56-4.13-5.48-5.29-8.76C.59,34.15,0,30.79,0,27.36s.58-6.78,1.75-10.06c1.17-3.28,2.93-6.2,5.29-8.76,2.36-2.56,5.32-4.62,8.87-6.19,3.55-1.57,7.69-2.35,12.41-2.35m0,.12c-3.64,0-6.82.78-9.55,2.34-2.73,1.56-5,3.61-6.82,6.17-1.82,2.55-3.18,5.47-4.09,8.75-.91,3.28-1.36,6.61-1.36,9.99s.45,6.72,1.36,9.99c.91,3.28,2.27,6.19,4.09,8.74,1.82,2.55,4.09,4.61,6.82,6.17,2.73,1.56,5.91,2.34,9.55,2.34s6.8-.78,9.51-2.34c2.7-1.56,4.96-3.61,6.78-6.17,1.82-2.55,3.18-5.47,4.09-8.74.91-3.28,1.36-6.61,1.36-9.99s-.46-6.72-1.36-9.99c-.91-3.28-2.27-6.19-4.09-8.75-1.82-2.55-4.08-4.61-6.78-6.17C35.14.9,31.97.12,28.33.12"/>
      <polygon class="cls-3" points="64.46 53.45 64.46 1.27 71.7 1.27 71.7 36.16 99.13 36.16 99.13 1.27 101.67 1.27 101.67 53.45 99.13 53.45 99.13 37.6 71.7 37.6 71.7 53.45 64.46 53.45"/>
      <polygon class="cls-3" points="119.59 1.27 135.69 36.61 151.8 1.27 159.03 1.27 159.03 53.45 151.87 53.45 151.87 6.78 133.38 47.27 114.82 6.56 114.82 53.45 112.28 53.45 112.28 1.27 119.59 1.27"/>
      <path class="cls-3" d="m169.65,53.45l18.94-46.82-2.16-5.37h7.23l21.1,52.19h-7.16l-6.04-15.59h-23.11l-6.04,15.59h-2.76Zm9.77-17.3h21.17l-10.59-26.09-10.59,26.09Z"/>
      <text class="cls-1" transform="translate(214.75 6.12)"><tspan x="0" y="0">TM</tspan></text>
      <rect class="cls-2" y="0" width="224.56" height="54.72"/>
    </g>
  </g>
</svg>