<?xml version="1.0" encoding="UTF-8"?>
<svg id="Layer_2" data-name="Layer 2" xmlns="http://www.w3.org/2000/svg" viewBox="0 0 267.47 60">
  <defs>
    <style>
      .cls-1 {
        letter-spacing: .49em;
      }

      .cls-2 {
        letter-spacing: .49em;
      }

      .cls-3 {
        letter-spacing: .5em;
      }

      .cls-4 {
        letter-spacing: .5em;
      }

      .cls-5 {
        letter-spacing: .48em;
      }

      .cls-6 {
        fill: none;
      }

      .cls-6, .cls-7, .cls-8 {
        opacity: .9;
      }

      .cls-7, .cls-8 {
        fill: #222;
      }

      .cls-9 {
        letter-spacing: .49em;
      }

      .cls-8 {
        font-family: Biennale-Book, Biennale;
        font-size: 14.21px;
      }
    </style>
  </defs>
  <g id="Layer_1-2" data-name="Layer 1">
    <g>
      <text class="cls-8" transform="translate(0 56.51)"><tspan class="cls-9" x="0" y="0">T</tspan><tspan class="cls-3" x="14.69" y="0">hi</tspan><tspan class="cls-4" x="40.68" y="0">n</tspan><tspan class="cls-2" x="56.47" y="0">k</tspan><tspan class="cls-3" x="70.46" y="0" xml:space="preserve"> I</tspan><tspan class="cls-1" x="91.4" y="0">n</tspan><tspan class="cls-5" x="107.05" y="0">t</tspan><tspan class="cls-3" x="119.01" y="0">ellige</tspan><tspan class="cls-1" x="196.95" y="0">n</tspan><tspan x="212.6" y="0">t</tspan></text>
      <rect class="cls-7" x="0" y="4.42" width="2.21" height="23.24"/>
      <polygon class="cls-7" points="41.86 4.41 41.86 27.65 39.99 27.65 26.95 8.29 26.95 27.65 24.74 27.65 24.74 4.41 26.61 4.41 39.62 23.81 39.62 4.41 41.86 4.41"/>
      <path class="cls-7" d="m63.06,16.05c0-7.05,4.91-12,11.43-12,5.45,0,8.83,3.08,10.37,7.32l-2.14.87c-1.34-3.78-4.05-6.08-8.26-6.08-5.22,0-9.13,4.05-9.13,9.9s3.91,9.86,9.23,9.86c4.21,0,6.82-2.27,8.16-6.09l2.14.87c-1.54,4.31-4.78,7.32-10.27,7.32-6.62,0-11.53-4.95-11.53-11.97"/>
      <polygon class="cls-7" points="113.14 18.09 113.14 27.65 110.94 27.65 110.94 18.02 102.27 4.42 104.78 4.42 112.07 16.18 119.36 4.42 121.87 4.42 113.14 18.09"/>
      <path class="cls-7" d="m150.22,28.02c-6.59,0-11.44-4.98-11.44-11.97s4.88-12,11.44-12c5.35,0,8.76,2.94,10.33,7.12l-2.14.87c-1.41-3.78-4.21-5.88-8.23-5.88-5.28,0-9.13,4.08-9.13,9.93s3.88,9.9,9.33,9.9c4.81,0,8.39-3.18,9.03-8.49h-9.23v-1.77h11.37c0,7.49-4.88,12.3-11.33,12.3"/>
      <polygon class="cls-7" points="189.27 18.09 189.27 27.65 187.07 27.65 187.07 18.02 178.41 4.42 180.91 4.42 188.2 16.18 195.49 4.42 198 4.42 189.27 18.09"/>
      <path class="cls-7" d="m215.35,22.57l2.14-.8c.67,2.71,2.81,4.25,5.92,4.25s5.28-1.6,5.28-4.11c0-6.65-12.27-4.05-12.27-12,0-3.41,2.68-5.82,7.06-5.82,3.78,0,6.22,1.77,7.12,4.71l-2.14.8c-.74-2.44-2.41-3.54-5.08-3.54-3.04,0-4.72,1.5-4.72,3.61,0,6.32,12.31,3.58,12.31,12.17,0,3.71-3.04,6.15-7.69,6.15-4.08,0-6.95-2.01-7.92-5.42"/>
      <path class="cls-7" d="m246.33,5.88c-1.61,0-2.94-1.31-2.96-2.91-.01-1.64,1.33-2.98,2.97-2.97,1.61,0,2.92,1.33,2.92,2.94,0,1.61-1.32,2.93-2.93,2.93"/>
      <path class="cls-7" d="m264.53,13.1c1.61,0,2.93,1.32,2.93,2.93,0,1.64-1.34,2.96-2.99,2.94-1.61-.02-2.91-1.35-2.9-2.96.01-1.6,1.34-2.91,2.95-2.91"/>
      <path class="cls-7" d="m246.36,26.19c1.61.01,2.92,1.34,2.91,2.95,0,1.63-1.36,2.95-3.01,2.92-1.6-.03-2.9-1.38-2.88-2.99.02-1.6,1.36-2.9,2.98-2.89"/>
      <path class="cls-7" d="m258.1,22.91c-.03,1.6-1.37,2.9-2.98,2.88-1.63-.02-2.94-1.38-2.9-3.03.04-1.6,1.4-2.88,3.02-2.85,1.6.03,2.89,1.38,2.87,3"/>
      <path class="cls-7" d="m255.15,12.56c-1.61,0-2.93-1.32-2.93-2.93,0-1.63,1.35-2.96,2.98-2.95,1.6.02,2.91,1.35,2.9,2.96-.01,1.61-1.34,2.92-2.95,2.91"/>
      <rect class="cls-6" x="0" y="0" width="267.46" height="59.99"/>
    </g>
  </g>
</svg>