<?xml version="1.0" encoding="UTF-8"?>
<svg id="Layer_2" data-name="Layer 2" xmlns="http://www.w3.org/2000/svg" viewBox="0 0 205.86 59.34">
  <defs>
    <style>
      .cls-1 {
        fill: none;
      }

      .cls-1, .cls-2 {
        opacity: .9;
      }

      .cls-2 {
        fill: #222;
      }
    </style>
  </defs>
  <g id="Layer_1-2" data-name="Layer 1">
    <g>
      <path class="cls-2" d="m205.86,37.22c-.53,1.91-.91,3.89-1.62,5.73-2.85,7.35-8.21,12.14-15.57,14.76-5.74,2.05-11.67,2.15-17.39.35-6.8-2.14-11.01-7.8-10.93-15.41.04-4.23,1.44-8.13,3.97-11.53,1.86-2.51,3.91-4.88,5.91-7.28.8-.96.5-1.86-.73-2.24-1.5-.47-3.04-.9-4.45-1.59-1.58-.77-1.94-2.24-.91-3.67.61-.85,1.56-1.46,2.34-2.2.46-.43.88-.89,1.31-1.34-.51-.44-.98-.94-1.54-1.29-.63-.4-1.39-.6-2.02-.99-2.02-1.26-2.37-3.02-1.05-5.01,1.07-1.61,2.65-2.62,4.42-3.15,2.97-.88,6.01-1.54,9.14-1.01,3.29.56,6.56,1.27,9.85,1.84,5.17.88,10.25.55,15.15-1.46,1.77-.73,3.61.44,3.83,2.63.42,4.11-1.84,7.01-6,7.7-3.8.63-7.35-.58-10.8-2.08-1.76-.77-3.49-1.63-5.29-2.3-2.52-.93-5.15-1.06-7.79-.53-1.17.23-2.15.74-2.3,2.12-.18,1.63.73,2.76,2.57,2.84,1.75.08,3.51-.1,5.27-.09.57,0,1.5.1,1.64.42.27.67.33,1.59.07,2.24-.14.35-1.13.5-1.74.51-1.29.04-2.59-.13-3.89-.11-1.6.02-2.69.94-2.74,2.19-.05,1.27.89,2.28,2.57,2.36,2.24.1,4.51.12,6.74-.09,3.19-.31,6.33-.31,9.49.31,5.88,1.15,11.86,7.33,12.26,13.5.01.2.13.39.2.58v3.26Zm-21.84,15.03c4.52.47,7.9-1.76,10.48-4.94,3.09-3.82,3.99-7.8,1.18-12.52-1.58-2.66-3.83-4.73-6.33-6.52-5.33-3.82-13.99-2.38-17.55,1.69-2.72,3.1-3.91,6.48-2.62,10.49.75,2.32,1.88,4.48,3.64,6.21,3.13,3.08,6.34,6.07,11.2,5.59"/>
      <path class="cls-2" d="m113.97,13.38c-2.51,0-5.02-.04-7.53.02-1.6.04-2.75.86-2.92,1.91-.23,1.37.52,2.46,2.18,3.1,3.58,1.38,7.2,2.68,10.75,4.14,3.92,1.61,7.66,3.48,10.53,6.79,2.49,2.86,3.58,8.26,1.38,11.78-1.44,2.3-1.17,3.02.94,4.77,4.01,3.32,8.53,4.45,13.61,3.12,3.85-1.01,7.77-5.57,8.16-9.33.22-2.12-.71-3.65-2.07-5.14-3.22-3.51-7.5-5.53-11.35-8.14-2.76-1.87-5.37-3.8-7.25-6.62-2.69-4.03-.05-10.1,4.76-10.81.82-.12,1.45.12,1.64.96.84,3.67,3.5,5.85,6.37,7.89,2.65,1.89,5.32,3.76,7.89,5.76,3.41,2.66,5.32,6.2,6.03,10.48.41,2.53.06,4.92-.71,7.27-1.48,4.51-3.8,8.6-7.2,11.9-4.4,4.26-9.78,6.11-15.95,5.49-4.27-.43-7.95-2.15-11.03-5.13-.79-.77-1.69-.84-2.64-.27-4.1,2.45-8.52,4.04-13.22,4.82-3.91.65-7.81.42-11.45-1.21-1.49-.66-2.81-1.79-4.04-2.89-1.41-1.25-2.66-1.48-4.29-.51-4.2,2.5-8.78,3.8-13.62,4.27-3.69.36-7.32.33-10.9-.9-4.72-1.63-7.86-6.78-7.29-11.74.84-7.29,4.59-12.89,9.68-17.9,4.47-4.39,9.87-6.79,15.94-7.43,5.53-.59,10.88.46,15.27,4.29,3.16,2.76,4.82,6.18,4.03,10.44-.23,1.25-.71,2.5-1.31,3.62-1.98,3.73-1.4,6.99,1.85,9.7,4.01,3.35,8.66,4.09,13.45,2.53,6.43-2.09,9.55-9.17,5.96-15.15-.42-.7-1.03-1.31-1.63-1.88-4.75-4.45-10.48-7.39-16.08-10.57-2.6-1.47-5.09-3.25-7.29-5.26-2.13-1.95-1.53-4.84.88-6.51,3.3-2.29,7.01-3.47,10.93-4.15,3-.52,6.01-1.07,8.96-1.84,2.07-.54,3.96-1.53,5.23-3.44,1.14-1.72,1.88-1.91,3.84-1.22,2.48.88,4.55,2.21,4.95,5.09.32,2.27-.51,4.15-2.4,5.4-1.98,1.31-4.22,1.97-6.62,2.05-2.13.07-4.26.2-6.39.3v.18Zm-35.2,14.8c-4.88-.29-6.37.66-10.24,2.63-5.49,2.79-7.23,11.35-.45,15.96,7.6,5.18,19.21,2.92,23.7-5.85,1.59-3.11.79-7.7-1.81-9.32-3.49-2.18-7.18-3.81-11.2-3.42"/>
      <path class="cls-2" d="m31.26,51.14c2.28-.41,4.62-.64,6.84-1.29,3.07-.89,4.87-3.42,4.7-6.33-.05-.86-.4-1.81-.88-2.54-2.61-3.91-6.21-6.82-9.81-9.77-4.71-3.85-9.61-7.54-13.4-12.4-.39-.49-.76-1.01-1.07-1.54-1.11-1.89-.97-3.77.42-5.45,1.84-2.22,4.3-3.54,6.87-4.7,4.42-1.99,9.09-2.78,13.89-3.03,3.08-.16,6.18-.63,9.23-.4,6.47.51,12.92,1.43,18.8,4.43,2.37,1.21,4.26,3.03,4.63,5.87.33,2.56-1.82,5.94-4.53,7.07-3.12,1.29-6.37,2.22-9.77,1.69-2.54-.4-5.08-1.01-7.53-1.79-1.22-.39-2.36-1.25-3.32-2.14-1.89-1.76-2.05-3.77-.68-5.98.24-.39.57-.73.82-1.11.8-1.21.35-2.25-1.1-2.19-3.51.14-7.01.4-10.51.68-1.2.1-2.4.35-3.58.61-2.65.59-3.64,2.89-2.16,5.15.58.89,1.38,1.69,2.19,2.39,5.16,4.52,10.61,8.73,15.17,13.87,1.45,1.63,2.83,3.49,3.59,5.5,1.46,3.9.14,7.58-2.3,10.65-3.45,4.33-8.11,7.2-13.38,8.7-8.76,2.49-17.42,2.23-25.49-2.54-3.47-2.05-6.43-4.7-7.97-8.56-1.25-3.13-1.2-6.33.07-9.41,1.66-4.02,4.28-7.39,7.93-9.8,2.8-1.85,5.86-2.71,9.31-1.91,3.93.92,6.69,5.88,3.09,10.27-2.52,3.08-5.62,5.48-9.77,6.14-.61.1-1.56.63-1.61,1.05-.07.58.42,1.43.93,1.83,4.47,3.51,9.62,5.51,15.21,6.37,1.69.26,3.42.25,5.13.37.02.08.05.16.07.23M55.29,11.4c-.63,0-1.26-.06-1.88.01-1.61.19-3.03,1.32-3.26,2.53-.25,1.29.45,2.41,2.22,3.22,2.28,1.04,4.73,1.2,7.09.51.88-.26,1.81-1.23,2.19-2.1.49-1.12-.29-2.11-1.27-2.85-1.53-1.16-3.29-1.33-5.1-1.32M8.21,37.68c2.48-.56,4.41-1.61,5.86-3.45.55-.69.97-1.62.25-2.26-.53-.47-1.54-.74-2.25-.61-2.2.42-3.86,1.76-5.02,3.64-.3.49-.45,1.31-.25,1.82.17.42.95.6,1.4.86"/>
      <rect class="cls-1" y="0" width="205.86" height="59.33"/>
    </g>
  </g>
</svg>