<?xml version="1.0" encoding="UTF-8"?>
<svg id="Layer_2" data-name="Layer 2" xmlns="http://www.w3.org/2000/svg" xmlns:xlink="http://www.w3.org/1999/xlink" viewBox="0 0 127.42 70.78">
  <defs>
    <style>
      .cls-1 {
        fill: #fff;
      }

      .cls-1, .cls-2, .cls-3, .cls-4 {
        opacity: .9;
      }

      .cls-5, .cls-4 {
        fill: #222;
      }

      .cls-6 {
        clip-path: url(#clippath);
      }

      .cls-7, .cls-3 {
        fill: none;
      }
    </style>
    <clipPath id="clippath">
      <path class="cls-7" d="m88.3,31.21v19.34h-19.91v-.05c-10.38-.32-18.69-8.83-18.69-19.29s8.64-19.3,19.3-19.3,18.99,8.33,19.29,18.73c0,.19,0,.38,0,.57"/>
    </clipPath>
  </defs>
  <g id="Layer_1-2" data-name="Layer 1">
    <g>
      <rect class="cls-4" y="15.01" width="9.8" height="35.49"/>
      <path class="cls-4" d="m36.42,50.51c0-6.78.02-13.09.03-19.87h-.03v-.62c0-3.41-2.77-6.18-6.18-6.18s-6.18,2.77-6.18,6.18v20.49h-9.8V15.01h9.8v5.47c.64-.86,4.21-5.49,9.73-5.71,2.13-.08,3.89.52,4.79.83,1.55.54,4.49,1.58,6.17,4.39.96,1.6,1.23,3.33,1.34,4.03.18,1.1.18,2.05.14,2.72.01,7.93.02,15.86.04,23.79-3.28-.01-6.57-.02-9.85-.04"/>
      <path class="cls-4" d="m127.42,14.81v10.09c-1.11-.07-3.78-.07-6.36,1.6-4.84,3.13-4.85,9.19-4.84,9.65v14.37c-3.4,0-6.46.01-9.86.02V15.5h9.83v7.51c.51-1.19,2.88-6.31,8.1-7.8,1.11-.32,2.17-.42,3.12-.4"/>
      <path class="cls-4" d="m92.54,50.54h9.84V15.5h-9.84v35.04Zm4.92-37.24c3.03,0,5.48-2.45,5.48-5.48s-2.45-5.48-5.48-5.48-5.48,2.45-5.48,5.48,2.45,5.48,5.48,5.48"/>
      <g class="cls-2">
        <g class="cls-6">
          <path class="cls-5" d="m73.38,0c-.47,0-.85.38-.85.85s.38.85.85.85.85-.38.85-.85S73.85,0,73.38,0m-1.59,1.59c-.47,0-.85.38-.85.85s.38.85.85.85.85-.38.85-.85-.38-.85-.85-.85m-1.59,1.59c-.47,0-.85.38-.85.85s.38.85.85.85.85-.38.85-.85-.38-.85-.85-.85m-1.59,1.59c-.47,0-.85.38-.85.85s.38.85.85.85.85-.38.85-.85-.38-.85-.85-.85m-1.59,1.59c-.47,0-.85.38-.85.85s.38.85.85.85.85-.38.85-.85-.38-.85-.85-.85m-1.59,1.59c-.47,0-.85.38-.85.85s.38.85.85.85.85-.38.85-.85-.38-.85-.85-.85m-1.59,1.59c-.47,0-.85.38-.85.85s.38.85.85.85.85-.38.85-.85-.38-.85-.85-.85m-1.59,1.59c-.47,0-.85.38-.85.85s.38.85.85.85.85-.38.85-.85-.38-.85-.85-.85m-1.59,1.59c-.47,0-.85.38-.85.85s.38.85.85.85.85-.38.85-.85-.38-.85-.85-.85m-1.59,1.59c-.47,0-.85.38-.85.85s.38.85.85.85.85-.38.85-.85-.38-.85-.85-.85m-1.59,1.59c-.47,0-.85.38-.85.85s.38.85.85.85.85-.38.85-.85-.38-.85-.85-.85m-1.59,1.59c-.47,0-.85.38-.85.85s.38.85.85.85.85-.38.85-.85-.38-.85-.85-.85m-1.59,1.59c-.47,0-.85.38-.85.85s.38.85.85.85.85-.38.85-.85-.38-.85-.85-.85m-1.59,1.59c-.47,0-.85.38-.85.85s.38.85.85.85.85-.38.85-.85-.38-.85-.85-.85m-1.59,1.59c-.47,0-.85.38-.85.85s.38.85.85.85.85-.38.85-.85-.38-.85-.85-.85m-1.59,1.59c-.47,0-.85.38-.85.85s.38.85.85.85.85-.38.85-.85-.38-.85-.85-.85m-1.59,1.59c-.47,0-.85.38-.85.85s.38.85.85.85.85-.38.85-.85-.38-.85-.85-.85m-1.59,1.59c-.47,0-.85.38-.85.85s.38.85.85.85.85-.38.85-.85-.38-.85-.85-.85m-1.59,1.59c-.47,0-.85.38-.85.85s.38.85.85.85.85-.38.85-.85-.38-.85-.85-.85m-1.59,1.59c-.47,0-.85.38-.85.85s.38.85.85.85.85-.38.85-.85-.38-.85-.85-.85m-1.59,1.59c-.47,0-.85.38-.85.85s.38.85.85.85.85-.38.85-.85-.38-.85-.85-.85m-1.59,1.59c-.47,0-.85.38-.85.85s.38.85.85.85.85-.38.85-.85-.38-.85-.85-.85m-1.59,1.59c-.47,0-.85.38-.85.85s.38.85.85.85.85-.38.85-.85-.38-.85-.85-.85m-1.59,1.59c-.47,0-.85.38-.85.85s.38.85.85.85.85-.38.85-.85-.38-.85-.85-.85m-1.59,1.59c-.47,0-.85.38-.85.85s.38.85.85.85.85-.38.85-.85-.38-.85-.85-.85"/>
          <path class="cls-5" d="m75.42,1.94c-.46,0-.83.37-.83.83s.37.83.83.83.82-.37.82-.83-.37-.83-.82-.83m-1.59,1.59c-.46,0-.82.37-.82.83s.37.83.82.83.82-.37.82-.83-.37-.83-.82-.83m-1.59,1.59c-.46,0-.82.37-.82.83s.37.83.82.83.82-.37.82-.83-.37-.83-.82-.83m-1.59,1.59c-.46,0-.82.37-.82.82s.37.83.82.83.82-.37.82-.83-.37-.82-.82-.82m-1.59,1.59c-.46,0-.82.37-.82.82s.37.83.82.83.82-.37.82-.83-.37-.82-.82-.82m-1.59,1.59c-.46,0-.82.37-.82.83s.37.83.82.83.82-.37.82-.83-.37-.83-.82-.83m-1.59,1.59c-.45,0-.82.37-.82.83s.37.82.82.82.82-.37.82-.82-.37-.83-.82-.83m-1.59,1.59c-.46,0-.82.37-.82.82s.37.83.82.83.82-.37.82-.83-.37-.82-.82-.82m-1.59,1.59c-.46,0-.82.37-.82.83s.37.83.82.83.82-.37.82-.83-.37-.83-.82-.83m-1.59,1.59c-.46,0-.82.37-.82.83s.37.82.82.82.82-.37.82-.82-.37-.83-.82-.83m-1.59,1.59c-.45,0-.82.37-.82.83s.37.82.82.82.83-.37.83-.82-.37-.83-.83-.83m-1.59,1.59c-.46,0-.82.37-.82.83s.37.83.82.83.82-.37.82-.83-.37-.83-.82-.83m-1.59,1.59c-.46,0-.82.37-.82.83s.37.83.82.83.82-.37.82-.83-.37-.83-.82-.83m-1.59,1.59c-.46,0-.82.37-.82.83s.37.83.82.83.83-.37.83-.83-.37-.83-.83-.83m-1.59,1.59c-.46,0-.82.37-.82.82s.37.82.82.82.82-.37.82-.82-.37-.82-.82-.82m-1.59,1.59c-.46,0-.82.37-.82.83s.37.82.82.82.82-.37.82-.82-.37-.83-.82-.83m-1.59,1.59c-.46,0-.82.37-.82.83s.37.82.82.82.82-.37.82-.82-.37-.83-.82-.83m-1.59,1.59c-.45,0-.82.37-.82.82s.37.83.82.83.83-.37.83-.83-.37-.82-.83-.82m-1.59,1.59c-.46,0-.82.37-.82.82s.37.83.82.83.82-.37.82-.83-.37-.82-.82-.82m-1.59,1.59c-.46,0-.82.37-.82.83s.37.83.82.83.82-.37.82-.83-.37-.83-.82-.83m-1.59,1.59c-.46,0-.82.37-.82.83s.37.83.82.83.83-.37.83-.83-.37-.83-.83-.83m-1.59,1.59c-.46,0-.83.37-.83.83s.37.83.83.83.82-.37.82-.83-.37-.83-.82-.83m-1.59,1.59c-.46,0-.82.37-.82.82s.37.83.82.83.82-.37.82-.83-.37-.82-.82-.82m-1.59,1.59c-.46,0-.82.37-.82.82s.37.83.82.83.82-.37.82-.83-.37-.82-.82-.82m-1.59,1.59c-.46,0-.83.37-.83.83s.37.83.83.83.82-.37.82-.83-.37-.83-.82-.83"/>
          <path class="cls-5" d="m77.45,3.88c-.44,0-.8.36-.8.8s.36.8.8.8.8-.36.8-.8-.36-.8-.8-.8m-1.59,1.59c-.44,0-.8.36-.8.8s.36.8.8.8.8-.36.8-.8-.36-.8-.8-.8m-1.59,1.59c-.44,0-.8.36-.8.8s.36.8.8.8.8-.36.8-.8-.36-.8-.8-.8m-1.59,1.59c-.44,0-.8.36-.8.8s.36.8.8.8.8-.36.8-.8-.36-.8-.8-.8m-1.59,1.59c-.44,0-.8.36-.8.8s.36.8.8.8.8-.36.8-.8-.36-.8-.8-.8m-1.59,1.59c-.44,0-.8.36-.8.8s.36.8.8.8.8-.36.8-.8-.36-.8-.8-.8m-1.59,1.59c-.44,0-.8.36-.8.8s.36.8.8.8.8-.36.8-.8-.36-.8-.8-.8m-1.59,1.59c-.44,0-.8.36-.8.8s.36.8.8.8.8-.36.8-.8-.36-.8-.8-.8m-1.59,1.59c-.44,0-.8.36-.8.8s.36.8.8.8.8-.36.8-.8-.36-.8-.8-.8m-1.59,1.59c-.44,0-.8.36-.8.8s.36.8.8.8.8-.36.8-.8-.36-.8-.8-.8m-1.59,1.59c-.44,0-.8.36-.8.8s.36.8.8.8.8-.36.8-.8-.36-.8-.8-.8m-1.59,1.59c-.44,0-.8.36-.8.8s.36.8.8.8.8-.36.8-.8-.36-.8-.8-.8m-1.59,1.59c-.44,0-.8.36-.8.8s.36.8.8.8.8-.36.8-.8-.36-.8-.8-.8m-1.59,1.59c-.44,0-.8.36-.8.8s.36.8.8.8.8-.36.8-.8-.36-.8-.8-.8m-1.59,1.59c-.44,0-.8.36-.8.8s.36.8.8.8.8-.36.8-.8-.36-.8-.8-.8m-1.59,1.59c-.44,0-.8.36-.8.8s.36.8.8.8.8-.36.8-.8-.36-.8-.8-.8m-1.59,1.59c-.44,0-.8.36-.8.8s.36.8.8.8.8-.36.8-.8-.36-.8-.8-.8m-1.59,1.59c-.44,0-.8.36-.8.8s.36.8.8.8.8-.36.8-.8-.36-.8-.8-.8m-1.59,1.59c-.44,0-.8.36-.8.8s.36.8.8.8.8-.36.8-.8-.36-.8-.8-.8m-1.59,1.59c-.44,0-.8.36-.8.8s.36.8.8.8.8-.36.8-.8-.36-.8-.8-.8m-1.59,1.59c-.44,0-.8.36-.8.8s.36.8.8.8.8-.36.8-.8-.36-.8-.8-.8m-1.59,1.59c-.44,0-.8.36-.8.8s.36.8.8.8.8-.36.8-.8-.36-.8-.8-.8m-1.59,1.59c-.44,0-.8.36-.8.8s.36.8.8.8.8-.36.8-.8-.36-.8-.8-.8m-1.59,1.59c-.44,0-.8.36-.8.8s.36.8.8.8.8-.36.8-.8-.36-.8-.8-.8m-1.59,1.59c-.44,0-.8.36-.8.8s.36.8.8.8.8-.36.8-.8-.36-.8-.8-.8"/>
          <path class="cls-5" d="m79.49,5.82c-.42,0-.77.34-.77.77s.34.77.77.77.77-.34.77-.77-.34-.77-.77-.77m-1.59,1.6c-.42,0-.77.34-.77.77s.34.77.77.77.77-.34.77-.77-.34-.77-.77-.77m-1.59,1.59c-.42,0-.77.34-.77.77s.34.77.77.77.77-.34.77-.77-.34-.77-.77-.77m-1.6,1.6c-.42,0-.77.34-.77.77s.34.77.77.77.77-.34.77-.77-.34-.77-.77-.77m-1.59,1.6c-.42,0-.77.34-.77.77s.34.77.77.77.77-.34.77-.77-.34-.77-.77-.77m-1.6,1.59c-.42,0-.77.34-.77.77s.34.77.77.77.77-.34.77-.77-.34-.77-.77-.77m-1.59,1.6c-.42,0-.77.34-.77.77s.34.77.77.77.77-.34.77-.77-.34-.77-.77-.77m-1.59,1.59c-.42,0-.77.34-.77.77s.34.77.77.77.77-.34.77-.77-.34-.77-.77-.77m-1.59,1.6c-.42,0-.77.34-.77.77s.34.77.77.77.77-.34.77-.77-.34-.77-.77-.77m-1.6,1.59c-.42,0-.77.34-.77.77s.34.77.77.77.77-.34.77-.77-.34-.77-.77-.77m-1.59,1.6c-.42,0-.77.34-.77.77s.34.77.77.77.77-.34.77-.77-.34-.77-.77-.77m-1.6,1.59c-.42,0-.77.34-.77.77s.34.77.77.77.77-.34.77-.77-.34-.77-.77-.77m-1.59,1.6c-.42,0-.77.34-.77.77s.34.77.77.77.77-.34.77-.77-.34-.77-.77-.77m-1.59,1.59c-.42,0-.77.34-.77.77s.34.77.77.77.77-.34.77-.77-.34-.77-.77-.77m-1.59,1.6c-.42,0-.77.34-.77.77s.34.77.77.77.77-.34.77-.77-.34-.77-.77-.77m-1.6,1.59c-.42,0-.77.34-.77.77s.34.77.77.77.77-.34.77-.77-.34-.77-.77-.77m-1.59,1.6c-.42,0-.77.34-.77.77s.34.77.77.77.77-.34.77-.77-.34-.77-.77-.77m-1.6,1.6c-.42,0-.77.34-.77.77s.34.77.77.77.77-.34.77-.77-.34-.77-.77-.77m-1.59,1.59c-.42,0-.77.34-.77.77s.34.77.77.77.77-.34.77-.77-.34-.77-.77-.77m-1.59,1.6c-.42,0-.77.34-.77.77s.34.77.77.77.77-.34.77-.77-.34-.77-.77-.77m-1.59,1.59c-.42,0-.77.34-.77.77s.34.77.77.77.77-.34.77-.77-.34-.77-.77-.77m-1.59,1.6c-.42,0-.77.34-.77.77s.34.77.77.77.77-.34.77-.77-.34-.77-.77-.77m-1.6,1.6c-.42,0-.77.34-.77.77s.34.77.77.77.77-.34.77-.77-.34-.77-.77-.77m-1.59,1.59c-.42,0-.77.34-.77.77s.34.77.77.77.77-.34.77-.77-.34-.77-.77-.77m-1.59,1.59c-.42,0-.77.34-.77.77s.34.77.77.77.77-.34.77-.77-.34-.77-.77-.77"/>
          <path class="cls-5" d="m81.53,7.75c-.41,0-.74.33-.74.74s.33.74.74.74.74-.33.74-.74-.33-.74-.74-.74m-1.6,1.6c-.41,0-.74.33-.74.74s.33.74.74.74.74-.33.74-.74-.33-.74-.74-.74m-1.6,1.6c-.41,0-.74.33-.74.74s.33.74.74.74.74-.33.74-.74-.33-.74-.74-.74m-1.6,1.6c-.41,0-.74.33-.74.74s.33.74.74.74.74-.33.74-.74-.33-.74-.74-.74m-1.6,1.6c-.41,0-.74.33-.74.74s.33.74.74.74.74-.33.74-.74-.33-.74-.74-.74m-1.6,1.6c-.41,0-.74.33-.74.74s.33.74.74.74.74-.33.74-.74-.33-.74-.74-.74m-1.6,1.6c-.41,0-.74.33-.74.74s.33.74.74.74.74-.33.74-.74-.33-.74-.74-.74m-1.6,1.6c-.41,0-.74.33-.74.74s.33.74.74.74.74-.33.74-.74-.33-.74-.74-.74m-1.6,1.6c-.41,0-.74.33-.74.74s.33.74.74.74.74-.33.74-.74-.33-.74-.74-.74m-1.6,1.6c-.41,0-.74.33-.74.74s.33.74.74.74.74-.33.74-.74-.33-.74-.74-.74m-1.6,1.6c-.41,0-.74.33-.74.74s.33.74.74.74.74-.33.74-.74-.33-.74-.74-.74m-1.6,1.6c-.41,0-.74.33-.74.74s.33.74.74.74.74-.33.74-.74-.33-.74-.74-.74m-1.6,1.6c-.41,0-.74.33-.74.74s.33.74.74.74.74-.33.74-.74-.33-.74-.74-.74m-1.6,1.6c-.41,0-.74.33-.74.74s.33.74.74.74.74-.33.74-.74-.33-.74-.74-.74m-1.6,1.6c-.41,0-.74.33-.74.74s.33.74.74.74.74-.33.74-.74-.33-.74-.74-.74m-1.6,1.6c-.41,0-.74.33-.74.74s.33.74.74.74.74-.33.74-.74-.33-.74-.74-.74m-1.6,1.6c-.41,0-.74.33-.74.74s.33.74.74.74.74-.33.74-.74-.33-.74-.74-.74m-1.6,1.6c-.41,0-.74.33-.74.74s.33.74.74.74.74-.33.74-.74-.33-.74-.74-.74m-1.6,1.6c-.41,0-.74.33-.74.74s.33.74.74.74.74-.33.74-.74-.33-.74-.74-.74m-1.6,1.6c-.41,0-.74.33-.74.74s.33.74.74.74.74-.33.74-.74-.33-.74-.74-.74m-1.6,1.6c-.41,0-.74.33-.74.74s.33.74.74.74.74-.33.74-.74-.33-.74-.74-.74m-1.6,1.6c-.41,0-.74.33-.74.74s.33.74.74.74.74-.33.74-.74-.33-.74-.74-.74m-1.6,1.6c-.41,0-.74.33-.74.74s.33.74.74.74.74-.33.74-.74-.33-.74-.74-.74m-1.6,1.6c-.41,0-.74.33-.74.74s.33.74.74.74.74-.33.74-.74-.33-.74-.74-.74m-1.6,1.6c-.41,0-.74.33-.74.74s.33.74.74.74.74-.33.74-.74-.33-.74-.74-.74"/>
          <path class="cls-5" d="m83.56,9.69c-.39,0-.71.32-.71.71s.32.71.71.71.71-.32.71-.71-.32-.71-.71-.71m-1.6,1.6c-.39,0-.71.32-.71.71s.32.71.71.71.71-.32.71-.71-.32-.71-.71-.71m-1.6,1.6c-.39,0-.71.32-.71.71s.32.71.71.71.71-.32.71-.71-.32-.71-.71-.71m-1.6,1.6c-.39,0-.71.32-.71.71s.32.71.71.71.71-.32.71-.71-.32-.71-.71-.71m-1.6,1.6c-.39,0-.71.32-.71.71s.32.71.71.71.71-.32.71-.71-.32-.71-.71-.71m-1.6,1.6c-.39,0-.71.32-.71.71s.32.71.71.71.71-.32.71-.71-.32-.71-.71-.71m-1.6,1.6c-.39,0-.71.32-.71.71s.32.71.71.71.71-.32.71-.71-.32-.71-.71-.71m-1.6,1.6c-.39,0-.71.32-.71.71s.32.71.71.71.71-.32.71-.71-.32-.71-.71-.71m-1.6,1.6c-.39,0-.71.32-.71.71s.32.71.71.71.71-.32.71-.71-.32-.71-.71-.71m-1.6,1.6c-.39,0-.71.32-.71.71s.32.71.71.71.71-.32.71-.71-.32-.71-.71-.71m-1.6,1.6c-.39,0-.71.32-.71.71s.32.71.71.71.71-.32.71-.71-.32-.71-.71-.71m-1.6,1.6c-.39,0-.71.32-.71.71s.32.71.71.71.71-.32.71-.71-.32-.71-.71-.71m-1.6,1.6c-.39,0-.71.32-.71.71s.32.71.71.71.71-.32.71-.71-.32-.71-.71-.71m-1.6,1.6c-.39,0-.71.32-.71.71s.32.71.71.71.71-.32.71-.71-.32-.71-.71-.71m-1.6,1.6c-.39,0-.71.32-.71.71s.32.71.71.71.71-.32.71-.71-.32-.71-.71-.71m-1.6,1.6c-.39,0-.71.32-.71.71s.32.71.71.71.71-.32.71-.71-.32-.71-.71-.71m-1.6,1.6c-.39,0-.71.32-.71.71s.32.71.71.71.71-.32.71-.71-.32-.71-.71-.71m-1.6,1.6c-.39,0-.71.32-.71.71s.32.71.71.71.71-.32.71-.71-.32-.71-.71-.71m-1.6,1.6c-.39,0-.71.32-.71.71s.32.71.71.71.71-.32.71-.71-.32-.71-.71-.71m-1.6,1.6c-.39,0-.71.32-.71.71s.32.71.71.71.71-.32.71-.71-.32-.71-.71-.71m-1.6,1.6c-.39,0-.71.32-.71.71s.32.71.71.71.71-.32.71-.71-.32-.71-.71-.71m-1.6,1.6c-.39,0-.71.32-.71.71s.32.71.71.71.71-.32.71-.71-.32-.71-.71-.71m-1.6,1.6c-.39,0-.71.32-.71.71s.32.71.71.71.71-.32.71-.71-.32-.71-.71-.71m-1.6,1.6c-.39,0-.71.32-.71.71s.32.71.71.71.71-.32.71-.71-.32-.71-.71-.71m-1.6,1.6c-.39,0-.71.32-.71.71s.32.71.71.71.71-.32.71-.71-.32-.71-.71-.71"/>
          <path class="cls-5" d="m85.6,11.63c-.38,0-.68.3-.68.68s.3.68.68.68.68-.3.68-.68-.31-.68-.68-.68m-1.6,1.6c-.38,0-.68.3-.68.68s.3.68.68.68.68-.3.68-.68-.31-.68-.68-.68m-1.6,1.6c-.38,0-.68.3-.68.68s.3.68.68.68.68-.3.68-.68-.3-.68-.68-.68m-1.6,1.6c-.38,0-.68.3-.68.68s.3.68.68.68.68-.3.68-.68-.3-.68-.68-.68m-1.6,1.6c-.38,0-.68.3-.68.68s.3.68.68.68.68-.3.68-.68-.3-.68-.68-.68m-1.6,1.6c-.38,0-.68.31-.68.68s.3.68.68.68.68-.3.68-.68-.3-.68-.68-.68m-1.6,1.6c-.38,0-.68.3-.68.68s.3.68.68.68.68-.3.68-.68-.3-.68-.68-.68m-1.6,1.6c-.38,0-.68.3-.68.68s.3.68.68.68.68-.3.68-.68-.3-.68-.68-.68m-1.6,1.6c-.38,0-.68.3-.68.68s.3.68.68.68.68-.31.68-.68-.3-.68-.68-.68m-1.6,1.6c-.38,0-.68.3-.68.68s.3.68.68.68.68-.3.68-.68-.3-.68-.68-.68m-1.6,1.6c-.38,0-.68.3-.68.68s.3.68.68.68.68-.3.68-.68-.3-.68-.68-.68m-1.6,1.6c-.38,0-.68.3-.68.68s.31.68.68.68.68-.3.68-.68-.3-.68-.68-.68m-1.6,1.6c-.38,0-.68.3-.68.68s.3.68.68.68.68-.3.68-.68-.3-.68-.68-.68m-1.6,1.6c-.38,0-.68.31-.68.68s.3.68.68.68.68-.3.68-.68-.3-.68-.68-.68m-1.6,1.6c-.38,0-.68.3-.68.68s.3.68.68.68.68-.3.68-.68-.31-.68-.68-.68m-1.6,1.6c-.38,0-.68.3-.68.68s.3.68.68.68.68-.3.68-.68-.3-.68-.68-.68m-1.6,1.6c-.38,0-.68.3-.68.68s.31.68.68.68.68-.31.68-.68-.3-.68-.68-.68m-1.6,1.6c-.38,0-.68.3-.68.68s.3.68.68.68.68-.3.68-.68-.3-.68-.68-.68m-1.6,1.6c-.38,0-.68.3-.68.68s.3.68.68.68.68-.3.68-.68-.31-.68-.68-.68m-1.6,1.6c-.38,0-.68.3-.68.68s.3.68.68.68.68-.3.68-.68-.31-.68-.68-.68m-1.6,1.6c-.38,0-.68.3-.68.68s.3.68.68.68.68-.3.68-.68-.3-.68-.68-.68m-1.6,1.6c-.38,0-.68.3-.68.68s.3.68.68.68.68-.3.68-.68-.3-.68-.68-.68m-1.6,1.6c-.38,0-.68.3-.68.68s.3.68.68.68.68-.3.68-.68-.3-.68-.68-.68m-1.6,1.6c-.38,0-.68.3-.68.68s.3.68.68.68.68-.3.68-.68-.3-.68-.68-.68m-1.6,1.6c-.38,0-.68.31-.68.68s.3.68.68.68.68-.3.68-.68-.3-.68-.68-.68"/>
          <path class="cls-5" d="m87.64,13.57c-.36,0-.65.29-.65.65s.29.65.65.65.65-.29.65-.65-.29-.65-.65-.65m-1.6,1.6c-.36,0-.65.29-.65.65s.29.65.65.65.65-.29.65-.65-.29-.65-.65-.65m-1.6,1.6c-.36,0-.65.29-.65.65s.29.65.65.65.65-.29.65-.65-.29-.65-.65-.65m-1.6,1.6c-.36,0-.65.29-.65.65s.29.65.65.65.65-.29.65-.65-.29-.65-.65-.65m-1.6,1.6c-.36,0-.65.29-.65.65s.29.65.65.65.65-.29.65-.65-.29-.65-.65-.65m-1.6,1.6c-.36,0-.65.29-.65.65s.29.65.65.65.65-.29.65-.65-.29-.65-.65-.65m-1.6,1.6c-.36,0-.65.29-.65.65s.29.65.65.65.65-.29.65-.65-.29-.65-.65-.65m-1.6,1.6c-.36,0-.65.29-.65.65s.29.65.65.65.65-.29.65-.65-.29-.65-.65-.65m-1.6,1.6c-.36,0-.65.29-.65.65s.29.65.65.65.65-.29.65-.65-.29-.65-.65-.65m-1.6,1.6c-.36,0-.65.29-.65.65s.29.65.65.65.65-.29.65-.65-.29-.65-.65-.65m-1.6,1.6c-.36,0-.65.29-.65.65s.29.65.65.65.65-.29.65-.65-.29-.65-.65-.65m-1.6,1.6c-.36,0-.65.29-.65.65s.29.65.65.65.65-.29.65-.65-.29-.65-.65-.65m-1.6,1.6c-.36,0-.65.29-.65.65s.29.65.65.65.65-.29.65-.65-.29-.65-.65-.65m-1.6,1.6c-.36,0-.65.29-.65.65s.29.65.65.65.65-.29.65-.65-.29-.65-.65-.65m-1.6,1.6c-.36,0-.65.29-.65.65s.29.65.65.65.65-.29.65-.65-.29-.65-.65-.65m-1.6,1.6c-.36,0-.65.29-.65.65s.29.65.65.65.65-.29.65-.65-.29-.65-.65-.65m-1.6,1.6c-.36,0-.65.29-.65.65s.29.65.65.65.65-.29.65-.65-.29-.65-.65-.65m-1.6,1.6c-.36,0-.65.29-.65.65s.29.65.65.65.65-.29.65-.65-.29-.65-.65-.65m-1.6,1.6c-.36,0-.65.29-.65.65s.29.65.65.65.65-.29.65-.65-.29-.65-.65-.65m-1.6,1.6c-.36,0-.65.29-.65.65s.29.65.65.65.65-.29.65-.65-.29-.65-.65-.65m-1.6,1.6c-.36,0-.65.29-.65.65s.29.65.65.65.65-.29.65-.65-.29-.65-.65-.65m-1.6,1.6c-.36,0-.65.29-.65.65s.29.65.65.65.65-.29.65-.65-.29-.65-.65-.65m-1.6,1.6c-.36,0-.65.29-.65.65s.29.65.65.65.65-.29.65-.65-.29-.65-.65-.65m-1.6,1.6c-.36,0-.65.29-.65.65s.29.65.65.65.65-.29.65-.65-.29-.65-.65-.65m-1.6,1.6c-.36,0-.65.29-.65.65s.29.65.65.65.65-.29.65-.65-.29-.65-.65-.65"/>
          <path class="cls-5" d="m89.68,15.51c-.34,0-.62.28-.62.62s.28.62.62.62.62-.28.62-.62-.28-.62-.62-.62m-1.61,1.61c-.34,0-.62.28-.62.62s.28.62.62.62.62-.28.62-.62-.28-.62-.62-.62m-1.61,1.61c-.34,0-.62.28-.62.62s.28.62.62.62.62-.28.62-.62-.28-.62-.62-.62m-1.61,1.61c-.34,0-.62.28-.62.62s.28.62.62.62.62-.28.62-.62-.28-.62-.62-.62m-1.61,1.61c-.34,0-.62.28-.62.62s.28.62.62.62.62-.28.62-.62-.28-.62-.62-.62m-1.61,1.61c-.34,0-.62.28-.62.62s.28.62.62.62.62-.28.62-.62-.28-.62-.62-.62m-1.61,1.61c-.34,0-.62.28-.62.62s.28.62.62.62.62-.28.62-.62-.28-.62-.62-.62m-1.61,1.61c-.34,0-.62.28-.62.62s.28.62.62.62.62-.28.62-.62-.28-.62-.62-.62m-1.61,1.61c-.34,0-.62.28-.62.62s.28.62.62.62.62-.28.62-.62-.28-.62-.62-.62m-1.61,1.61c-.34,0-.62.28-.62.62s.28.62.62.62.62-.28.62-.62-.28-.62-.62-.62m-1.61,1.61c-.34,0-.62.28-.62.62s.28.62.62.62.62-.28.62-.62-.28-.62-.62-.62m-1.61,1.61c-.34,0-.62.28-.62.62s.28.62.62.62.62-.28.62-.62-.28-.62-.62-.62m-1.61,1.61c-.34,0-.62.28-.62.62s.28.62.62.62.62-.28.62-.62-.28-.62-.62-.62m-1.61,1.61c-.34,0-.62.28-.62.62s.28.62.62.62.62-.28.62-.62-.28-.62-.62-.62m-1.61,1.61c-.34,0-.62.28-.62.62s.28.62.62.62.62-.28.62-.62-.28-.62-.62-.62m-1.61,1.61c-.34,0-.62.28-.62.62s.28.62.62.62.62-.28.62-.62-.28-.62-.62-.62m-1.61,1.61c-.34,0-.62.28-.62.62s.28.62.62.62.62-.28.62-.62-.28-.62-.62-.62m-1.61,1.61c-.34,0-.62.28-.62.62s.28.62.62.62.62-.28.62-.62-.28-.62-.62-.62m-1.61,1.61c-.34,0-.62.28-.62.62s.28.62.62.62.62-.28.62-.62-.28-.62-.62-.62m-1.61,1.61c-.34,0-.62.28-.62.62s.28.62.62.62.62-.28.62-.62-.28-.62-.62-.62m-1.61,1.61c-.34,0-.62.28-.62.62s.28.62.62.62.62-.28.62-.62-.28-.62-.62-.62m-1.61,1.61c-.34,0-.62.28-.62.62s.28.62.62.62.62-.28.62-.62-.28-.62-.62-.62m-1.61,1.61c-.34,0-.62.28-.62.62s.28.62.62.62.62-.28.62-.62-.28-.62-.62-.62m-1.61,1.61c-.34,0-.62.28-.62.62s.28.62.62.62.62-.28.62-.62-.28-.62-.62-.62m-1.61,1.61c-.34,0-.62.28-.62.62s.28.62.62.62.62-.28.62-.62-.28-.62-.62-.62"/>
          <path class="cls-5" d="m91.71,17.45c-.33,0-.59.27-.59.59s.27.59.59.59.59-.27.59-.59-.27-.59-.59-.59m-1.61,1.61c-.33,0-.59.27-.59.59s.27.59.59.59.59-.27.59-.59-.27-.59-.59-.59m-1.61,1.61c-.33,0-.59.27-.59.59s.27.59.59.59.59-.27.59-.59-.27-.59-.59-.59m-1.61,1.61c-.33,0-.59.27-.59.59s.27.59.59.59.59-.27.59-.59-.27-.59-.59-.59m-1.61,1.61c-.33,0-.59.27-.59.59s.27.59.59.59.59-.26.59-.59-.27-.59-.59-.59m-1.61,1.61c-.33,0-.59.27-.59.59s.27.59.59.59.59-.27.59-.59-.27-.59-.59-.59m-1.61,1.61c-.33,0-.59.27-.59.59s.27.59.59.59.59-.27.59-.59-.27-.59-.59-.59m-1.61,1.61c-.33,0-.59.27-.59.59s.27.59.59.59.59-.27.59-.59-.27-.59-.59-.59m-1.61,1.61c-.33,0-.59.27-.59.59s.27.59.59.59.59-.27.59-.59-.27-.59-.59-.59m-1.61,1.61c-.33,0-.59.27-.59.59s.27.59.59.59.59-.27.59-.59-.27-.59-.59-.59m-1.61,1.61c-.33,0-.59.27-.59.59s.27.59.59.59.59-.27.59-.59-.27-.59-.59-.59m-1.61,1.61c-.33,0-.59.27-.59.59s.27.59.59.59.59-.27.59-.59-.27-.59-.59-.59m-1.61,1.61c-.33,0-.59.27-.59.59s.27.59.59.59.59-.27.59-.59-.27-.59-.59-.59m-1.61,1.61c-.33,0-.59.27-.59.59s.27.59.59.59.59-.27.59-.59-.27-.59-.59-.59m-1.61,1.61c-.33,0-.59.27-.59.59s.27.59.59.59.59-.27.59-.59-.27-.59-.59-.59m-1.61,1.61c-.33,0-.59.27-.59.59s.27.59.59.59.59-.27.59-.59-.27-.59-.59-.59m-1.61,1.61c-.33,0-.59.27-.59.59s.27.59.59.59.59-.27.59-.59-.27-.59-.59-.59m-1.61,1.61c-.33,0-.59.27-.59.59s.27.59.59.59.59-.27.59-.59-.27-.59-.59-.59m-1.61,1.61c-.33,0-.59.27-.59.59s.27.59.59.59.59-.27.59-.59-.27-.59-.59-.59m-1.61,1.61c-.33,0-.59.27-.59.59s.27.59.59.59.59-.27.59-.59-.27-.59-.59-.59m-1.61,1.61c-.33,0-.59.27-.59.59s.27.59.59.59.59-.27.59-.59-.27-.59-.59-.59m-1.61,1.61c-.33,0-.59.26-.59.59s.27.59.59.59.59-.27.59-.59-.27-.59-.59-.59m-1.61,1.61c-.33,0-.59.27-.59.59s.27.59.59.59.59-.27.59-.59-.27-.59-.59-.59m-1.61,1.61c-.33,0-.59.27-.59.59s.27.59.59.59.59-.27.59-.59-.27-.59-.59-.59m-1.61,1.61c-.33,0-.59.27-.59.59s.27.59.59.59.59-.27.59-.59-.27-.59-.59-.59"/>
          <path class="cls-5" d="m93.75,19.39c-.31,0-.57.25-.57.57s.25.57.57.57.56-.25.56-.57-.25-.57-.56-.57m-1.61,1.61c-.31,0-.56.25-.56.57s.25.57.56.57.56-.25.56-.57-.25-.57-.56-.57m-1.61,1.61c-.31,0-.57.25-.57.57s.25.57.57.57.57-.25.57-.57-.25-.57-.57-.57m-1.61,1.61c-.31,0-.57.25-.57.57s.25.57.57.57.56-.25.56-.57-.25-.57-.56-.57m-1.61,1.61c-.31,0-.56.25-.56.57s.25.57.56.57.56-.25.56-.57-.25-.57-.56-.57m-1.61,1.61c-.31,0-.57.25-.57.57s.25.57.57.57.56-.25.56-.57-.25-.57-.56-.57m-1.61,1.61c-.31,0-.57.25-.57.57s.25.56.57.56.56-.25.56-.56-.25-.57-.56-.57m-1.61,1.61c-.31,0-.56.25-.56.57s.25.57.56.57.56-.25.56-.57-.25-.57-.56-.57m-1.61,1.61c-.31,0-.57.25-.57.57s.25.57.57.57.56-.25.56-.57-.25-.57-.56-.57m-1.61,1.61c-.31,0-.57.25-.57.57s.25.57.57.57.56-.25.56-.57-.25-.57-.56-.57m-1.61,1.61c-.31,0-.56.25-.56.57s.25.57.56.57.57-.25.57-.57-.25-.57-.57-.57m-1.61,1.61c-.31,0-.57.25-.57.57s.25.57.57.57.56-.25.56-.57-.25-.57-.56-.57m-1.61,1.61c-.31,0-.56.25-.56.56s.25.57.56.57.57-.25.57-.57-.25-.56-.57-.56m-1.61,1.61c-.31,0-.56.25-.56.57s.25.57.56.57.57-.25.57-.57-.25-.57-.57-.57m-1.61,1.61c-.31,0-.56.25-.56.57s.25.57.56.57.56-.25.56-.57-.25-.57-.56-.57m-1.61,1.61c-.31,0-.56.25-.56.57s.25.57.56.57.57-.25.57-.57-.25-.57-.57-.57m-1.61,1.61c-.31,0-.57.25-.57.57s.25.57.57.57.56-.25.56-.57-.25-.57-.56-.57m-1.61,1.61c-.31,0-.56.25-.56.57s.25.57.56.57.56-.25.56-.57-.25-.57-.56-.57m-1.61,1.61c-.31,0-.56.25-.56.56s.25.57.56.57.56-.25.56-.57-.25-.56-.56-.56m-1.61,1.61c-.31,0-.57.25-.57.57s.25.57.57.57.56-.25.56-.57-.25-.57-.56-.57m-1.61,1.61c-.31,0-.56.25-.56.57s.25.57.56.57.56-.25.56-.57-.25-.57-.56-.57m-1.61,1.61c-.31,0-.56.25-.56.57s.25.57.56.57.57-.25.57-.57-.25-.57-.57-.57m-1.61,1.61c-.31,0-.57.25-.57.57s.25.57.57.57.57-.25.57-.57-.25-.57-.57-.57m-1.61,1.61c-.31,0-.56.25-.56.57s.25.57.56.57.56-.25.56-.57-.25-.57-.56-.57m-1.61,1.61c-.31,0-.57.25-.57.57s.25.57.57.57.56-.25.56-.57-.25-.57-.56-.57"/>
          <path class="cls-5" d="m95.79,21.32c-.3,0-.54.24-.54.54s.24.54.54.54.54-.24.54-.54-.24-.54-.54-.54m-1.61,1.61c-.3,0-.54.24-.54.54s.24.54.54.54.54-.24.54-.54-.24-.54-.54-.54m-1.61,1.61c-.3,0-.54.24-.54.54s.24.54.54.54.54-.24.54-.54-.24-.54-.54-.54m-1.61,1.61c-.3,0-.54.24-.54.54s.24.54.54.54.54-.24.54-.54-.24-.54-.54-.54m-1.61,1.61c-.3,0-.54.24-.54.54s.24.54.54.54.54-.24.54-.54-.24-.54-.54-.54m-1.61,1.61c-.3,0-.54.24-.54.54s.24.54.54.54.54-.24.54-.54-.24-.54-.54-.54m-1.61,1.61c-.3,0-.54.24-.54.54s.24.54.54.54.54-.24.54-.54-.24-.54-.54-.54m-1.61,1.61c-.3,0-.54.24-.54.54s.24.54.54.54.54-.24.54-.54-.24-.54-.54-.54m-1.61,1.61c-.3,0-.54.24-.54.54s.24.54.54.54.54-.24.54-.54-.24-.54-.54-.54m-1.61,1.61c-.3,0-.54.24-.54.54s.24.54.54.54.54-.24.54-.54-.24-.54-.54-.54m-1.61,1.61c-.3,0-.54.24-.54.54s.24.54.54.54.54-.24.54-.54-.24-.54-.54-.54m-1.61,1.61c-.3,0-.54.24-.54.54s.24.54.54.54.54-.24.54-.54-.24-.54-.54-.54m-1.61,1.61c-.3,0-.54.24-.54.54s.24.54.54.54.54-.24.54-.54-.24-.54-.54-.54m-1.61,1.61c-.3,0-.54.24-.54.54s.24.54.54.54.54-.24.54-.54-.24-.54-.54-.54m-1.61,1.61c-.3,0-.54.24-.54.54s.24.54.54.54.54-.24.54-.54-.24-.54-.54-.54m-1.61,1.61c-.3,0-.54.24-.54.54s.24.54.54.54.54-.24.54-.54-.24-.54-.54-.54m-1.61,1.61c-.3,0-.54.24-.54.54s.24.54.54.54.54-.24.54-.54-.24-.54-.54-.54m-1.61,1.61c-.3,0-.54.24-.54.54s.24.54.54.54.54-.24.54-.54-.24-.54-.54-.54m-1.61,1.61c-.3,0-.54.24-.54.54s.24.54.54.54.54-.24.54-.54-.24-.54-.54-.54m-1.61,1.61c-.3,0-.54.24-.54.54s.24.54.54.54.54-.24.54-.54-.24-.54-.54-.54m-1.61,1.61c-.3,0-.54.24-.54.54s.24.54.54.54.54-.24.54-.54-.24-.54-.54-.54m-1.61,1.61c-.3,0-.54.24-.54.54s.24.54.54.54.54-.24.54-.54-.24-.54-.54-.54m-1.61,1.61c-.3,0-.54.24-.54.54s.24.54.54.54.54-.24.54-.54-.24-.54-.54-.54m-1.61,1.61c-.3,0-.54.24-.54.54s.24.54.54.54.54-.24.54-.54-.24-.54-.54-.54m-1.61,1.61c-.3,0-.54.24-.54.54s.24.54.54.54.54-.24.54-.54-.24-.54-.54-.54"/>
          <path class="cls-5" d="m97.82,23.26c-.28,0-.51.23-.51.51s.23.51.51.51.51-.23.51-.51-.23-.51-.51-.51m-1.61,1.62c-.28,0-.51.23-.51.51s.23.51.51.51.51-.23.51-.51-.23-.51-.51-.51m-1.61,1.61c-.28,0-.51.23-.51.51s.23.51.51.51.51-.23.51-.51-.23-.51-.51-.51m-1.61,1.61c-.28,0-.51.23-.51.51s.23.51.51.51.51-.23.51-.51-.23-.51-.51-.51m-1.61,1.61c-.28,0-.51.23-.51.51s.23.51.51.51.51-.23.51-.51-.23-.51-.51-.51m-1.61,1.62c-.28,0-.51.23-.51.51s.23.51.51.51.51-.23.51-.51-.23-.51-.51-.51m-1.61,1.61c-.28,0-.51.23-.51.51s.23.51.51.51.51-.23.51-.51-.23-.51-.51-.51m-1.62,1.61c-.28,0-.51.23-.51.51s.23.51.51.51.51-.23.51-.51-.23-.51-.51-.51m-1.61,1.61c-.28,0-.51.23-.51.51s.23.51.51.51.51-.23.51-.51-.23-.51-.51-.51m-1.61,1.61c-.28,0-.51.23-.51.51s.23.51.51.51.51-.23.51-.51-.23-.51-.51-.51m-1.61,1.61c-.28,0-.51.23-.51.51s.23.51.51.51.51-.23.51-.51-.23-.51-.51-.51m-1.61,1.62c-.28,0-.51.23-.51.51s.23.51.51.51.51-.23.51-.51-.23-.51-.51-.51m-1.61,1.61c-.28,0-.51.23-.51.51s.23.51.51.51.51-.23.51-.51-.23-.51-.51-.51m-1.61,1.62c-.28,0-.51.23-.51.51s.23.51.51.51.51-.23.51-.51-.23-.51-.51-.51m-1.62,1.62c-.28,0-.51.23-.51.51s.23.51.51.51.51-.23.51-.51-.23-.51-.51-.51m-1.61,1.61c-.28,0-.51.23-.51.51s.23.51.51.51.51-.23.51-.51-.23-.51-.51-.51m-1.61,1.61c-.28,0-.51.23-.51.51s.23.51.51.51.51-.23.51-.51-.23-.51-.51-.51m-1.61,1.61c-.28,0-.51.23-.51.51s.23.51.51.51.51-.23.51-.51-.23-.51-.51-.51m-1.61,1.61c-.28,0-.51.23-.51.51s.23.51.51.51.51-.23.51-.51-.23-.51-.51-.51m-1.61,1.61c-.28,0-.51.23-.51.51s.23.51.51.51.51-.23.51-.51-.23-.51-.51-.51m-1.61,1.61c-.28,0-.51.23-.51.51s.23.51.51.51.51-.23.51-.51-.23-.51-.51-.51m-1.62,1.62c-.28,0-.51.23-.51.51s.23.51.51.51.51-.23.51-.51-.23-.51-.51-.51m-1.61,1.61c-.28,0-.51.23-.51.51s.23.51.51.51.51-.23.51-.51-.23-.51-.51-.51m-1.61,1.61c-.28,0-.51.23-.51.51s.23.51.51.51.51-.23.51-.51-.23-.51-.51-.51m-1.61,1.61c-.28,0-.51.23-.51.51s.23.51.51.51.51-.23.51-.51-.23-.51-.51-.51"/>
          <path class="cls-5" d="m99.86,25.2c-.26,0-.48.21-.48.48s.21.48.48.48.48-.21.48-.48-.21-.48-.48-.48m-1.62,1.62c-.26,0-.48.21-.48.48s.21.48.48.48.48-.21.48-.48-.22-.48-.48-.48m-1.62,1.62c-.26,0-.48.22-.48.48s.21.48.48.48.48-.21.48-.48-.21-.48-.48-.48m-1.62,1.62c-.26,0-.48.21-.48.48s.21.48.48.48.48-.21.48-.48-.21-.48-.48-.48m-1.62,1.62c-.26,0-.48.21-.48.48s.21.48.48.48.48-.21.48-.48-.22-.48-.48-.48m-1.62,1.62c-.27,0-.48.22-.48.48s.21.48.48.48.48-.22.48-.48-.21-.48-.48-.48m-1.62,1.62c-.26,0-.48.21-.48.48s.21.48.48.48.48-.21.48-.48-.21-.48-.48-.48m-1.62,1.62c-.26,0-.48.21-.48.48s.21.48.48.48.48-.21.48-.48-.21-.48-.48-.48m-1.62,1.62c-.26,0-.48.22-.48.48s.21.48.48.48.48-.21.48-.48-.21-.48-.48-.48m-1.62,1.62c-.26,0-.48.21-.48.48s.22.48.48.48.48-.21.48-.48-.21-.48-.48-.48m-1.62,1.62c-.26,0-.48.21-.48.48s.21.48.48.48.48-.21.48-.48-.21-.48-.48-.48m-1.62,1.62c-.26,0-.48.21-.48.48s.21.48.48.48.48-.21.48-.48-.21-.48-.48-.48m-1.62,1.62c-.26,0-.48.21-.48.48s.21.48.48.48.48-.21.48-.48-.22-.48-.48-.48m-1.62,1.62c-.26,0-.48.21-.48.48s.21.48.48.48.48-.21.48-.48-.21-.48-.48-.48m-1.62,1.62c-.26,0-.48.21-.48.48s.21.48.48.48.48-.22.48-.48-.21-.48-.48-.48m-1.62,1.62c-.26,0-.48.21-.48.48s.22.48.48.48.48-.21.48-.48-.21-.48-.48-.48m-1.62,1.62c-.27,0-.48.21-.48.48s.21.48.48.48.48-.21.48-.48-.21-.48-.48-.48m-1.62,1.62c-.26,0-.48.21-.48.48s.21.48.48.48.48-.21.48-.48-.21-.48-.48-.48m-1.62,1.62c-.26,0-.48.21-.48.48s.22.48.48.48.48-.21.48-.48-.22-.48-.48-.48m-1.62,1.62c-.27,0-.48.22-.48.48s.21.48.48.48.48-.21.48-.48-.21-.48-.48-.48m-1.62,1.62c-.26,0-.48.21-.48.48s.21.48.48.48.48-.21.48-.48-.21-.48-.48-.48m-1.62,1.62c-.26,0-.48.21-.48.48s.22.48.48.48.48-.21.48-.48-.21-.48-.48-.48m-1.62,1.62c-.26,0-.48.22-.48.48s.21.48.48.48.48-.21.48-.48-.21-.48-.48-.48m-1.62,1.62c-.26,0-.48.21-.48.48s.21.48.48.48.48-.21.48-.48-.21-.48-.48-.48m-1.62,1.62c-.26,0-.48.21-.48.48s.21.48.48.48.48-.21.48-.48-.21-.48-.48-.48"/>
          <path class="cls-5" d="m101.9,27.14c-.25,0-.45.2-.45.45s.2.45.45.45.45-.2.45-.45-.2-.45-.45-.45m-1.62,1.62c-.25,0-.45.2-.45.45s.2.45.45.45.45-.2.45-.45-.2-.45-.45-.45m-1.62,1.62c-.25,0-.45.2-.45.45s.2.45.45.45.45-.2.45-.45-.2-.45-.45-.45m-1.62,1.62c-.25,0-.45.2-.45.45s.2.45.45.45.45-.2.45-.45-.2-.45-.45-.45m-1.62,1.62c-.25,0-.45.2-.45.45s.2.45.45.45.45-.2.45-.45-.2-.45-.45-.45m-1.62,1.62c-.25,0-.45.2-.45.45s.2.45.45.45.45-.2.45-.45-.2-.45-.45-.45m-1.62,1.62c-.25,0-.45.2-.45.45s.2.45.45.45.45-.2.45-.45-.2-.45-.45-.45m-1.62,1.62c-.25,0-.45.2-.45.45s.2.45.45.45.45-.2.45-.45-.2-.45-.45-.45m-1.62,1.62c-.25,0-.45.2-.45.45s.2.45.45.45.45-.2.45-.45-.2-.45-.45-.45m-1.62,1.62c-.25,0-.45.2-.45.45s.2.45.45.45.45-.2.45-.45-.2-.45-.45-.45m-1.62,1.62c-.25,0-.45.2-.45.45s.2.45.45.45.45-.2.45-.45-.2-.45-.45-.45m-1.62,1.62c-.25,0-.45.2-.45.45s.2.45.45.45.45-.2.45-.45-.2-.45-.45-.45m-1.62,1.62c-.25,0-.45.2-.45.45s.2.45.45.45.45-.2.45-.45-.2-.45-.45-.45m-1.62,1.62c-.25,0-.45.2-.45.45s.2.45.45.45.45-.2.45-.45-.2-.45-.45-.45m-1.62,1.62c-.25,0-.45.2-.45.45s.2.45.45.45.45-.2.45-.45-.2-.45-.45-.45m-1.62,1.62c-.25,0-.45.2-.45.45s.2.45.45.45.45-.2.45-.45-.2-.45-.45-.45m-1.62,1.62c-.25,0-.45.2-.45.45s.2.45.45.45.45-.2.45-.45-.2-.45-.45-.45m-1.62,1.62c-.25,0-.45.2-.45.45s.2.45.45.45.45-.2.45-.45-.2-.45-.45-.45m-1.62,1.62c-.25,0-.45.2-.45.45s.2.45.45.45.45-.2.45-.45-.2-.45-.45-.45m-1.62,1.62c-.25,0-.45.2-.45.45s.2.45.45.45.45-.2.45-.45-.2-.45-.45-.45m-1.62,1.62c-.25,0-.45.2-.45.45s.2.45.45.45.45-.2.45-.45-.2-.45-.45-.45m-1.62,1.62c-.25,0-.45.2-.45.45s.2.45.45.45.45-.2.45-.45-.2-.45-.45-.45m-1.62,1.62c-.25,0-.45.2-.45.45s.2.45.45.45.45-.2.45-.45-.2-.45-.45-.45m-1.62,1.62c-.25,0-.45.2-.45.45s.2.45.45.45.45-.2.45-.45-.2-.45-.45-.45m-1.62,1.62c-.25,0-.45.2-.45.45s.2.45.45.45.45-.2.45-.45-.2-.45-.45-.45"/>
          <path class="cls-5" d="m103.94,29.08c-.23,0-.42.19-.42.42s.19.42.42.42.42-.19.42-.42-.19-.42-.42-.42m-1.62,1.62c-.23,0-.42.19-.42.42s.19.42.42.42.42-.19.42-.42-.19-.42-.42-.42m-1.62,1.62c-.23,0-.42.19-.42.42s.19.42.42.42.42-.19.42-.42-.19-.42-.42-.42m-1.62,1.62c-.23,0-.42.19-.42.42s.19.42.42.42.42-.19.42-.42-.19-.42-.42-.42m-1.62,1.62c-.23,0-.42.19-.42.42s.19.42.42.42.42-.19.42-.42-.19-.42-.42-.42m-1.62,1.62c-.23,0-.42.19-.42.42s.19.42.42.42.42-.19.42-.42-.19-.42-.42-.42m-1.62,1.62c-.23,0-.42.19-.42.42s.19.42.42.42.42-.19.42-.42-.19-.42-.42-.42m-1.62,1.62c-.23,0-.42.19-.42.42s.19.42.42.42.42-.19.42-.42-.19-.42-.42-.42m-1.62,1.62c-.23,0-.42.19-.42.42s.19.42.42.42.42-.19.42-.42-.19-.42-.42-.42m-1.62,1.62c-.23,0-.42.19-.42.42s.19.42.42.42.42-.19.42-.42-.19-.42-.42-.42m-1.62,1.62c-.23,0-.42.19-.42.42s.19.42.42.42.42-.19.42-.42-.19-.42-.42-.42m-1.62,1.62c-.23,0-.42.19-.42.42s.19.42.42.42.42-.19.42-.42-.19-.42-.42-.42m-1.62,1.62c-.23,0-.42.19-.42.42s.19.42.42.42.42-.19.42-.42-.19-.42-.42-.42m-1.62,1.62c-.23,0-.42.19-.42.42s.19.42.42.42.42-.19.42-.42-.19-.42-.42-.42m-1.62,1.62c-.23,0-.42.19-.42.42s.19.42.42.42.42-.19.42-.42-.19-.42-.42-.42m-1.62,1.62c-.23,0-.42.19-.42.42s.19.42.42.42.42-.19.42-.42-.19-.42-.42-.42m-1.62,1.62c-.23,0-.42.19-.42.42s.19.42.42.42.42-.19.42-.42-.19-.42-.42-.42m-1.62,1.62c-.23,0-.42.19-.42.42s.19.42.42.42.42-.19.42-.42-.19-.42-.42-.42m-1.62,1.62c-.23,0-.42.19-.42.42s.19.42.42.42.42-.19.42-.42-.19-.42-.42-.42m-1.62,1.62c-.23,0-.42.19-.42.42s.19.42.42.42.42-.19.42-.42-.19-.42-.42-.42m-1.62,1.62c-.23,0-.42.19-.42.42s.19.42.42.42.42-.19.42-.42-.19-.42-.42-.42m-1.62,1.62c-.23,0-.42.19-.42.42s.19.42.42.42.42-.19.42-.42-.19-.42-.42-.42m-1.62,1.62c-.23,0-.42.19-.42.42s.19.42.42.42.42-.19.42-.42-.19-.42-.42-.42m-1.62,1.62c-.23,0-.42.19-.42.42s.19.42.42.42.42-.19.42-.42-.19-.42-.42-.42m-1.62,1.62c-.23,0-.42.19-.42.42s.19.42.42.42.42-.19.42-.42-.19-.42-.42-.42"/>
          <path class="cls-5" d="m104.35,32.64c-.22,0-.39.18-.39.39s.18.39.39.39.39-.17.39-.39-.18-.39-.39-.39m-1.62,1.62c-.22,0-.39.18-.39.39s.18.39.39.39.39-.17.39-.39-.17-.39-.39-.39m-1.62,1.62c-.22,0-.39.18-.39.39s.18.39.39.39.39-.17.39-.39-.18-.39-.39-.39m-1.62,1.62c-.22,0-.39.18-.39.39s.18.39.39.39.39-.17.39-.39-.18-.39-.39-.39m-1.62,1.62c-.22,0-.39.18-.39.39s.18.39.39.39.39-.18.39-.39-.18-.39-.39-.39m-1.62,1.62c-.22,0-.39.18-.39.39s.18.39.39.39.39-.17.39-.39-.18-.39-.39-.39m-1.62,1.62c-.22,0-.39.18-.39.39s.17.39.39.39.39-.17.39-.39-.18-.39-.39-.39m-1.62,1.62c-.22,0-.39.18-.39.39s.18.39.39.39.39-.17.39-.39-.18-.39-.39-.39m-1.62,1.62c-.22,0-.39.18-.39.39s.18.39.39.39.39-.17.39-.39-.18-.39-.39-.39m-1.62,1.62c-.22,0-.39.18-.39.39s.18.39.39.39.39-.17.39-.39-.18-.39-.39-.39m-1.62,1.62c-.22,0-.39.18-.39.39s.18.39.39.39.39-.17.39-.39-.18-.39-.39-.39m-1.62,1.62c-.22,0-.39.18-.39.39s.18.39.39.39.39-.17.39-.39-.18-.39-.39-.39m-1.62,1.62c-.22,0-.39.18-.39.39s.18.39.39.39.39-.18.39-.39-.18-.39-.39-.39m-1.62,1.62c-.22,0-.39.18-.39.39s.18.39.39.39.39-.17.39-.39-.18-.39-.39-.39m-1.62,1.62c-.22,0-.39.18-.39.39s.18.39.39.39.39-.17.39-.39-.18-.39-.39-.39m-1.62,1.62c-.22,0-.39.18-.39.39s.18.39.39.39.39-.17.39-.39-.18-.39-.39-.39m-1.62,1.62c-.22,0-.39.18-.39.39s.17.39.39.39.39-.17.39-.39-.18-.39-.39-.39m-1.62,1.62c-.22,0-.39.18-.39.39s.18.39.39.39.39-.18.39-.39-.18-.39-.39-.39m-1.62,1.62c-.22,0-.39.18-.39.39s.17.39.39.39.39-.17.39-.39-.18-.39-.39-.39m-1.62,1.62c-.22,0-.39.18-.39.39s.18.39.39.39.39-.17.39-.39-.18-.39-.39-.39m-1.62,1.62c-.22,0-.39.18-.39.39s.18.39.39.39.39-.17.39-.39-.18-.39-.39-.39m-1.62,1.62c-.22,0-.39.18-.39.39s.18.39.39.39.39-.17.39-.39-.18-.39-.39-.39m-1.62,1.62c-.22,0-.39.18-.39.39s.18.39.39.39.39-.18.39-.39-.17-.39-.39-.39m-1.62,1.62c-.22,0-.39.18-.39.39s.18.39.39.39.39-.17.39-.39-.18-.39-.39-.39m38.98-38.98c-.22,0-.39.18-.39.39s.18.39.39.39.39-.18.39-.39-.18-.39-.39-.39"/>
        </g>
      </g>
      <path class="cls-4" d="m88.51,50.75h-20.33v-.05c-5.01-.21-9.68-2.3-13.18-5.9-3.56-3.66-5.51-8.49-5.51-13.59,0-10.76,8.75-19.51,19.51-19.51,5.11,0,9.94,1.96,13.6,5.53,3.65,3.56,5.75,8.32,5.9,13.41,0,.19,0,.38,0,.58v19.55Zm-19.91-.42h19.48v-19.12c0-.19,0-.38,0-.56-.3-10.39-8.68-18.52-19.08-18.52s-19.09,8.56-19.09,19.08,8.12,18.76,18.49,19.08h.21v.04Z"/>
      <path class="cls-1" d="m88.3,30.64v.57c0-.19,0-.38,0-.57h0Z"/>
      <rect class="cls-3" x="0" width="127.42" height="70.78"/>
    </g>
  </g>
</svg>