<?xml version="1.0" encoding="UTF-8"?>
<svg id="Layer_2" data-name="Layer 2" xmlns="http://www.w3.org/2000/svg" viewBox="0 0 303.33 101.33">
  <defs>
    <style>
      .cls-1 {
        fill: none;
      }

      .cls-1, .cls-2 {
        opacity: .9;
      }

      .cls-2 {
        fill: #222;
      }
    </style>
  </defs>
  <g id="Layer_1-2" data-name="Layer 1">
    <g>
      <path class="cls-2" d="m0,25.33v50.67l43.88,25.33,43.88-25.33V25.33L43.88,0,0,25.33Zm10.55,29.58L41.36,15.52l-13.99,37.92,8.9,25.51-25.72-24.04Zm28.08,24.04l-8.46-25.51,13.71-37.92,13.71,37.92-8.46,25.51h-10.51Zm38.59-24.04l-25.73,24.04,8.9-25.51-13.99-37.92,30.81,39.39Zm192.57-2.24v-.08c3.53-.79,5.74-3.17,5.74-6.93,0-5.35-3.8-8.24-10.1-8.24h-13.35v28.32h7.13v-9.86h4.44c6.06,0,3.49,8.67,4.87,9.86h7.41v-.4c-1.62-.47.95-11.45-6.14-12.67m-5.74-2.61h-4.83v-6.81h4.83c2.85,0,4.36,1.03,4.36,3.41s-1.51,3.41-4.36,3.41m-39.96-1.54h-9.7v-11.09h-7.13v28.32h7.13v-11.41h9.7v11.41h7.13v-28.32h-7.13v11.09Zm14.02,17.23h7.13v-28.32h-7.13v28.32Zm50.66-5.82v-5.82h12.36v-5.82h-12.36v-5.03h14.34v-5.82h-21.47v28.32h21.71v-5.82h-14.58Zm-150.12-22.5l-10.85,28.32h1.27l3.72-9.63h13.31l3.72,9.63h1.27l-10.93-28.32h-1.51Zm-5.47,17.59l6.18-16.12h.08l6.22,16.12h-12.48Zm33.83-17.59h-10.06v28.32h1.27v-12.24h8.79c5.23,0,8.95-2.1,8.95-8.04s-3.72-8.04-8.95-8.04m.36,14.97h-9.15v-13.86h9.15c4.48,0,7.33,2.1,7.33,6.93s-2.85,6.93-7.33,6.93m-53.63-2.18c-5.39-.95-8.75-1.94-8.75-6.42,0-3.53,3.13-5.7,7.76-5.7,5.35,0,8.04,2.73,8.44,6.93h1.27c-.36-5.15-4.12-8.04-9.7-8.04-5.15,0-9.03,2.34-9.03,6.81s3.21,6.42,8.64,7.33c6.54,1.11,9.94,2.38,9.9,7.21-.04,3.6-2.73,6.73-8.24,6.73-5.9,0-9.78-2.97-10.14-8.44h-1.27c.36,6.46,5.19,9.55,11.41,9.55s9.51-3.53,9.51-7.84c0-5.07-3.29-6.97-9.78-8.12m78.74-12.79h-10.06v28.32h1.27v-12.24h8.79c5.23,0,8.95-2.1,8.95-8.04s-3.72-8.04-8.95-8.04m.36,14.97h-9.15v-13.86h9.15c4.48,0,7.33,2.1,7.33,6.93s-2.85,6.93-7.33,6.93"/>
      <rect class="cls-1" x="0" y="0" width="303.33" height="101.33"/>
    </g>
  </g>
</svg>