<?xml version="1.0" encoding="UTF-8"?>
<svg id="Layer_2" data-name="Layer 2" xmlns="http://www.w3.org/2000/svg" viewBox="0 0 127.51 45.55">
  <defs>
    <style>
      .cls-1 {
        fill: none;
      }

      .cls-1, .cls-2 {
        opacity: .9;
      }

      .cls-2 {
        fill: #222;
      }
    </style>
  </defs>
  <g id="Layer_1-2" data-name="Layer 1">
    <g>
      <path class="cls-2" d="m13.37,0H0v35.32h5.92c1.19,0,2.15-.97,2.15-2.15v-8.28c0-.37.3-.67.67-.67h4.63c6.96,0,12.36-5.4,12.36-12.11S20.33,0,13.37,0m0,16.65h-4.63c-.37,0-.67-.3-.67-.67v-7.74c0-.37.3-.67.67-.67h4.63c2.47,0,4.29,1.97,4.29,4.54s-1.82,4.54-4.29,4.54m28.41-6.88h0c-2.5.38-4.48,1.85-5.23,4.38v-2.72c0-.69-.56-1.26-1.26-1.26h-6.28v25.13h6.28c.69,0,1.26-.56,1.26-1.26v-10.6c0-4.02,2.71-5.43,5.53-5.33.65,0,1-.4,1-1.21v-5.93c0-.8-.45-1.36-1.31-1.21m27.87,9.37l-3.19,3.25c-.44.44-.54.87-.6,1.48-.1,1.11-.7,2.38-1.64,3.32-1.6,1.6-3.7,2.38-6.03,1.45-.33-.13-.42-.56-.17-.82l10.7-10.7c.5-.5.6-1.07.13-1.68-.37-.44-.74-.87-1.17-1.31-5.07-5.07-12.41-5.3-17.31-.4-5.3,5.3-5.13,12.85-.13,17.85,5,5,12.41,5.3,17.98-.27,3.42-3.42,4.66-7.68,3.05-11.91-.27-.8-1.01-.87-1.61-.27m-14.86-.91c1.48-1.48,3.63-2.29,6.06-.9l-7.19,7.19c-1.16-2.19-.76-4.41,1.13-6.29m35.54-8.76c-3.38,0-5.83,1.14-7.52,3.06v-1.09c0-.7-.56-1.26-1.26-1.26h-6.31v35.32h5.42c1.19,0,2.15-.96,2.15-2.15v-10.3c1.69,1.92,4.14,3.06,7.52,3.06,6.61,0,12.06-5.8,12.06-13.32s-5.45-13.32-12.06-13.32m-1.51,19.48c-1.31,0-2.48-.33-3.43-.95-1.59-1.03-2.58-2.84-2.58-5.21,0-2.13.8-3.82,2.12-4.88,1.02-.83,2.36-1.28,3.88-1.28,3.48,0,6,2.37,6,6.16s-2.52,6.16-6,6.16m37.55-18.72h-5.45c-.71,0-1.21.35-1.41,1.06l-4.14,13.32-4.79-13.37c-.25-.66-.71-1.01-1.41-1.01-2.34,0-4.69,0-7.03.01l9.45,24.82c-1.19,3.5-2.37,7-3.56,10.49,2.35,0,4.7,0,7.04,0,.71,0,1.26-.3,1.46-1.01l10.9-32.9c.3-.91-.15-1.41-1.06-1.41"/>
      <rect class="cls-1" x="0" width="127.51" height="45.55"/>
    </g>
  </g>
</svg>