<?xml version="1.0" encoding="UTF-8"?>
<svg id="Layer_2" data-name="Layer 2" xmlns="http://www.w3.org/2000/svg" viewBox="0 0 303.33 43.76">
  <defs>
    <style>
      .cls-1 {
        fill: #222;
        opacity: .9;
      }
    </style>
  </defs>
  <g id="Layer_1-2" data-name="Layer 1">
    <g>
      <path class="cls-1" d="m30.35,20.98h10.52v17.43c-4.87,3.49-11.54,5.35-17.67,5.35C9.8,43.76,0,34.68,0,21.88S9.8,0,23.44,0C31.32,0,37.69,2.7,41.83,7.69l-7.57,6.85c-2.89-3.19-6.19-4.69-10.22-4.69-7.21,0-12.02,4.75-12.02,12.02s4.81,12.02,11.9,12.02c2.22,0,4.33-.42,6.43-1.38v-11.54Z"/>
      <path class="cls-1" d="m46.28,21.88c0-12.62,9.92-21.88,23.38-21.88s23.38,9.26,23.38,21.88-9.92,21.88-23.38,21.88-23.38-9.26-23.38-21.88m34.74,0c0-7.27-4.99-12.02-11.36-12.02s-11.36,4.75-11.36,12.02,4.99,12.02,11.36,12.02,11.36-4.75,11.36-12.02"/>
      <path class="cls-1" d="m127.48,20.98h10.52v17.43c-4.87,3.49-11.54,5.35-17.67,5.35-13.4,0-23.2-9.08-23.2-21.88S106.92,0,120.57,0c7.87,0,14.24,2.7,18.39,7.69l-7.57,6.85c-2.89-3.19-6.19-4.69-10.22-4.69-7.21,0-12.02,4.75-12.02,12.02s4.81,12.02,11.9,12.02c2.22,0,4.33-.42,6.43-1.38v-11.54Z"/>
      <path class="cls-1" d="m173.76,34.74h-17.79l-3.31,8.17h-12.14L159.09.84h11.72l18.63,42.07h-12.38l-3.31-8.17Zm-3.49-8.78l-5.41-13.46-5.41,13.46h10.82Z"/>
      <path class="cls-1" d="m222.74,34.74h-17.79l-3.31,8.17h-12.14L208.07.84h11.72l18.63,42.07h-12.38l-3.31-8.17Zm-3.49-8.78l-5.41-13.46-5.41,13.46h10.82Z"/>
      <path class="cls-1" d="m241.79.84h19.89c13.94,0,23.5,8.11,23.5,21.04s-9.56,21.04-23.5,21.04h-19.89V.84Zm19.41,32.58c7.15,0,11.96-4.27,11.96-11.54s-4.81-11.54-11.96-11.54h-7.51v23.08h7.51Z"/>
      <rect class="cls-1" x="291.43" y=".84" width="11.9" height="42.07"/>
    </g>
  </g>
</svg>