<?xml version="1.0" encoding="UTF-8"?>
<svg id="Layer_2" data-name="Layer 2" xmlns="http://www.w3.org/2000/svg" viewBox="0 0 228.08 35.15">
  <defs>
    <style>
      .cls-1 {
        fill: none;
      }

      .cls-1, .cls-2 {
        opacity: .9;
      }

      .cls-2 {
        fill: #222;
      }
    </style>
  </defs>
  <g id="Layer_1-2" data-name="Layer 1">
    <g>
      <path class="cls-2" d="m0,5.37h11.51c2.06,0,3.88.29,5.47.86,1.59.58,2.83,1.53,3.74,2.85.91,1.33,1.36,3.09,1.36,5.28,0,2.06-.57,3.65-1.7,4.79-1.13,1.14-2.64,1.89-4.53,2.28l7.69,10.1h-8.37l-7.85-9.94v9.94H0V5.37Zm7.33,6.02v6.02h3.51c.98,0,1.83-.19,2.56-.58.73-.38,1.1-1.2,1.1-2.46s-.37-2.07-1.1-2.43c-.73-.37-1.59-.55-2.56-.55h-3.51Z"/>
      <polygon class="cls-2" points="26.95 5.37 36.89 5.37 46.83 5.37 46.83 11.38 34.27 11.38 34.27 15.31 45.26 15.31 45.26 21.32 34.27 21.32 34.27 25.25 46.83 25.25 46.83 31.53 36.89 31.53 26.95 31.53 26.95 5.37"/>
      <rect class="cls-2" x="50.75" y="5.37" width="7.32" height="26.16"/>
      <polygon class="cls-2" points="62.78 5.37 71.68 5.37 81.62 21.95 81.62 5.37 88.95 5.37 88.95 31.53 80.05 31.53 70.11 14.94 70.11 31.53 62.78 31.53 62.78 5.37"/>
      <path class="cls-2" d="m93.94,5.51h11.41c2.04,0,3.85.4,5.42,1.19,1.57.8,2.81,1.91,3.71,3.35.9,1.43,1.35,3.07,1.35,4.9,0,2.04-.45,3.76-1.35,5.16-.9,1.4-2.14,2.47-3.71,3.22-1.58.74-3.38,1.12-5.42,1.12h-4.15v7h-7.26V5.51Zm7.26,5.97v7h3.63c1,0,1.83-.28,2.49-.83.66-.55.99-1.45.99-2.7s-.33-2.14-.99-2.67c-.66-.53-1.49-.8-2.49-.8h-3.63Z"/>
      <path class="cls-2" d="m119.21,5.51h11.41c2.04,0,3.85.29,5.42.86,1.57.57,2.81,1.51,3.71,2.83.9,1.32,1.35,3.06,1.35,5.24,0,2.04-.56,3.62-1.69,4.75-1.12,1.12-2.62,1.88-4.49,2.26l7.63,10.01h-8.3l-7.78-9.86v9.86h-7.26V5.51Zm7.26,5.97v5.97h3.48c.97,0,1.82-.19,2.54-.57.73-.38,1.09-1.19,1.09-2.44s-.36-2.05-1.09-2.41c-.73-.36-1.57-.55-2.54-.55h-3.48Z"/>
      <polygon class="cls-2" points="145.93 5.51 155.79 5.51 165.64 5.51 165.64 11.48 153.19 11.48 153.19 15.37 164.09 15.37 164.09 21.34 153.19 21.34 153.19 25.23 165.64 25.23 165.64 31.45 155.79 31.45 145.93 31.45 145.93 5.51"/>
      <path class="cls-2" d="m169.54,5.51h11.41c2.04,0,3.85.4,5.42,1.19,1.57.8,2.81,1.91,3.71,3.35.9,1.43,1.35,3.07,1.35,4.9,0,2.04-.45,3.76-1.35,5.16-.9,1.4-2.14,2.47-3.71,3.22-1.57.74-3.38,1.12-5.42,1.12h-4.15v7h-7.26V5.51Zm7.26,5.97v7h3.63c1,0,1.83-.28,2.49-.83.66-.55.99-1.45.99-2.7s-.33-2.14-.99-2.67c-.66-.53-1.49-.8-2.49-.8h-3.63Z"/>
      <path class="cls-2" d="m213.22,0c-2.02,7.74-7.45,14.12-14.59,17.41V0h14.59Z"/>
      <path class="cls-2" d="m198.63,27.34c2.6.8,5.04,1.99,7.23,3.51-2.24,1.57-4.65,3.02-7.23,4.31v-7.82Z"/>
      <path class="cls-2" d="m228.08,0c-.39,6.82-2.77,13.37-6.84,19.2-2.93,4.2-6.73,8.02-11.28,11.29-2.37-1.66-4.97-2.92-7.72-3.74v-8.73c2.96-1.33,5.69-3.21,8.06-5.57,3.5-3.5,5.92-7.78,7.1-12.46h10.68Z"/>
      <rect class="cls-1" x="0" width="228.07" height="35.15"/>
    </g>
  </g>
</svg>