<?xml version="1.0" encoding="UTF-8"?>
<svg id="Layer_2" data-name="Layer 2" xmlns="http://www.w3.org/2000/svg" viewBox="0 0 136.39 30.05">
  <defs>
    <style>
      .cls-1 {
        fill: none;
      }

      .cls-1, .cls-2 {
        opacity: .9;
      }

      .cls-2 {
        fill: #222;
      }
    </style>
  </defs>
  <g id="Layer_1-2" data-name="Layer 1">
    <g>
      <rect class="cls-2" y="1.13" width="7.98" height="28.22"/>
      <path class="cls-2" d="m41.29,11.57v17.78h-7.87V13.12c0-3.59-2.36-5.62-5.57-5.62s-5.62,2.25-5.68,5.14v16.71h-7.93V1.13h7.5v2.62c1.93-1.98,4.87-3.32,8.52-3.32,6.75,0,11.03,4.55,11.03,11.14"/>
      <polygon class="cls-2" points="72.88 1.13 62.49 29.35 53.28 29.35 42.95 1.13 51.14 1.13 57.89 21.64 64.69 1.13 72.88 1.13"/>
      <path class="cls-2" d="m107.74,15.32c0-8.35,6.32-14.83,14.89-14.83,7.66,0,12.37,5.03,13.6,9.27l-7.07,2.78c-.8-2.95-3.05-4.98-6.37-4.98-3.96,0-7.07,3-7.07,7.71s3.11,7.71,7.07,7.71c3.37,0,5.73-2.03,6.53-4.93l7.07,2.84c-1.23,4.12-5.94,9.16-13.76,9.16-8.46,0-14.89-6.37-14.89-14.73"/>
      <path class="cls-2" d="m88.25,0C80.03,0,73.36,6.67,73.36,14.89s6.59,14.81,14.75,14.88v-7.6c-3.96-.07-7.15-3.3-7.15-7.28s3.26-7.28,7.28-7.28,7.28,3.26,7.28,7.28v14.89h7.6v-14.89C103.13,6.66,96.47,0,88.25,0"/>
      <path class="cls-2" d="m104.82,29.3v.48h-10.73v-.48c0-.92.74-1.66,1.66-1.66h7.4c.92,0,1.66.74,1.66,1.66"/>
      <rect class="cls-1" x="0" width="136.39" height="30.05"/>
    </g>
  </g>
</svg>