<?xml version="1.0" encoding="UTF-8"?>
<svg id="Layer_2" data-name="Layer 2" xmlns="http://www.w3.org/2000/svg" viewBox="0 0 252.22 160.9">
  <defs>
    <style>
      .cls-1 {
        fill: none;
      }

      .cls-1, .cls-2 {
        opacity: .9;
      }

      .cls-2 {
        fill: #222;
      }
    </style>
  </defs>
  <g id="Layer_1-2" data-name="Layer 1">
    <g>
      <path class="cls-2" d="m138.55,32.72c-.31,11.26-4.17,21.87-12.84,30.48-2.29,2.27-1.65,2.37-3.91,0-6.59-6.93-10.55-15.18-11.65-24.65-1.68-14.53,2.41-27.22,12.74-37.75,1.03-1.05,1.06-1.04,2.16-.06,7.61,6.83,11.78,15.43,13.09,25.5.24,1.89.38,3.79.4,6.48"/>
      <path class="cls-2" d="m131.89,69.94c2.06-2.56,4.19-5.04,6.72-7.17,6.89-5.81,14.8-9.24,23.74-10.38,9.21-1.17,17.9.45,26.12,4.68,2.13,1.1,4.09,2.44,6.03,3.84.81.59.8,1.05.27,1.82-3.96,5.79-9.07,10.29-15.29,13.48-10.46,5.37-21.41,6.68-32.79,3.56-5.23-1.43-10-3.85-14.13-7.42-.28-.24-.59-.45-.89-.68-1.08-.73,0-1.17.22-1.73"/>
      <path class="cls-2" d="m88.5,81.41c-12.54-.22-23.37-4.56-32.25-13.51-1.53-1.54-2.87-3.24-4.16-4.98-.37-.5-.28-.71.13-1.07,6.07-5.33,13.14-8.39,21.13-9.45,8.48-1.13,16.6.18,24.36,3.68,7.3,3.29,13.33,8.15,17.75,14.91.38.59.4.9-.19,1.36-5.58,4.29-11.82,7.06-18.74,8.34-2.65.49-5.32.71-8.03.73"/>
      <path class="cls-2" d="m113.67,60.25c-.77-.52-1.29-.86-1.79-1.21-7.29-5.22-15.36-8.54-24.22-9.88-1.27-.19-2.03-.72-2.7-1.82-2.34-3.86-4.18-7.92-5.28-12.3-1.41-5.57-1.65-11.2-.56-16.86.31-1.61.34-1.62,1.95-1.4,9.2,1.2,17.2,4.98,24.11,11.14.68.6.93,1.24.91,2.14-.2,8.01,1.17,15.75,4.19,23.18.86,2.11,1.91,4.13,2.99,6.14.1.18.18.38.41.87"/>
      <path class="cls-2" d="m134.67,59.97c1.18-2.08,2.24-4.2,3.15-6.39,3.05-7.33,4.56-14.97,4.31-22.92-.05-1.42.43-2.32,1.48-3.23,6.48-5.55,13.84-9.18,22.29-10.47,3.4-.52,2.88-.9,3.4,2.37,1.08,6.81.37,13.45-2.06,19.92-1.12,2.98-2.56,5.79-4.23,8.5-.5.82-1.1,1.21-2.03,1.34-5.81.82-11.35,2.53-16.61,5.13-3.15,1.56-6.16,3.35-8.96,5.48-.19.15-.35.4-.75.26"/>
      <path class="cls-2" d="m114.75,83.82c.02-5.45,4.06-9.46,9.51-9.45,5.13.02,9.3,4.22,9.32,9.39.02,5.16-4.33,9.46-9.54,9.45-5.11-.01-9.31-4.26-9.29-9.39"/>
      <path class="cls-2" d="m131.89,69.94c-.15.57-.8,1.07-.22,1.73-.9-.4-.83-.92.22-1.73"/>
      <path class="cls-2" d="m76.07,136.17c-9.53,0-17.02-2.37-22.46-7.12-5.44-4.74-8.17-11.21-8.17-19.38,0-7.3,2.55-13.28,7.66-17.94,5.11-4.66,12.05-6.98,20.82-6.98,3.03,0,6.2.22,9.54.66,1.53.31,3.73.68,6.58,1.11.66.04.99.31.99.79,0,.13-.06.5-.16,1.12-.11.79-.19,1.62-.25,2.49-.06,1.92-.14,4.29-.25,7.08-.09,1.01-.35,1.51-.79,1.51s-.66-.48-.66-1.44c-.04-2.27-.9-4.29-2.56-6.03-1.14-1.18-2.86-2.14-5.18-2.89-2.49-.79-5.2-1.18-8.13-1.18-5.25,0-9.36,1.36-12.33,4.07-4.02,3.67-6.03,9.34-6.03,16.99,0,7.21,2.34,13.05,7.02,17.51,4.07,3.89,8.61,5.84,13.64,5.84,2.8,0,4.96-.17,6.49-.53,2.32-.52,4.15-1.57,5.51-3.15,1.18-1.31,1.92-2.76,2.23-4.33.17-.87.46-1.31.85-1.31s.59.33.59.98c0,.48-.15,1.75-.46,3.8-.35,2.27-.67,3.89-.95,4.85-.29.96-.86,1.62-1.74,1.97-2.49,1.01-6.43,1.51-11.81,1.51"/>
      <path class="cls-2" d="m96.33,128.69l6.49-42.76c.17-1.14.55-1.71,1.11-1.71.53,0,1.11.68,1.77,2.03l17.91,36.99,17.84-37.45c.48-1.05.96-1.58,1.44-1.58.57,0,.96.68,1.18,2.03l5.97,40.53c.31,2.19.68,3.76,1.11,4.72.44.96,1.14,1.6,2.1,1.9,1.44.44,2.8.66,4.07.66.7,0,1.05.15,1.05.46,0,.48-.57.72-1.71.72-5.55,0-9.99-.13-13.31-.39-1.27-.09-1.9-.33-1.9-.72,0-.31.23-.55.69-.72.46-.17.58-1.11.36-2.82l-3.94-28.86h-.26l-14.3,29.84c-1.18,2.45-1.99,3.68-2.43,3.68-.39,0-1.16-1.1-2.3-3.29-4.15-7.93-6.67-12.9-7.54-14.92-1.49-3.24-3.76-8.1-6.82-14.59h-.26l-3.41,26.1c-.13,1.01-.2,2.03-.2,3.08s.66,1.79,1.97,2.1c.96.22,1.88.33,2.76.33.66,0,.98.15.98.46,0,.48-.53.72-1.58.72s-2.39-.03-4.03-.1c-1.64-.07-2.59-.1-2.85-.1-.35,0-1.32.03-2.92.1-1.6.06-2.79.1-3.57.1s-1.18-.24-1.18-.72c0-.3.35-.46,1.05-.46s1.36-.07,1.97-.2c1.31-.26,2.21-1.99,2.69-5.18"/>
      <path class="cls-2" d="m164.15,116.23v-11.54c0-7.83-.04-12.46-.13-13.9-.13-2.1-1.07-3.34-2.82-3.74-.61-.13-1.46-.2-2.56-.2-.74,0-1.11-.2-1.11-.59s.48-.59,1.44-.59c1.35,0,3.13.03,5.31.1,2.19.07,3.41.1,3.67.1.74,0,2.31-.03,4.69-.1,2.38-.07,3.9-.1,4.56-.1,5.29,0,9.31.94,12.07,2.82,1.09.74,2.05,1.86,2.89,3.35,1.05,1.75,1.57,3.63,1.57,5.64,0,5.12-2.89,10.01-8.66,14.69,4.77,6.03,7.39,9.31,7.87,9.84,2.54,3.19,4.66,5.66,6.36,7.41,2.4,2.49,4.85,3.98,7.35,4.46.53.04,1.03.09,1.51.13.74.09,1.11.29,1.11.59,0,.44-.42.66-1.25.66h-6.23c-3.15,0-5.49-.41-7.02-1.25-2.14-1.14-5.14-4.35-8.99-9.64-1.88-2.67-4.04-5.68-6.49-9.05-.26-.31-.66-.46-1.18-.46h-5.71c-.35,0-.52.17-.52.52v.91c0,7.38.11,12.03.33,13.94.26,2.22,1.12,3.41,2.56,3.58,1.31.17,2.38.26,3.21.26.53,0,.79.18.79.52,0,.44-.44.66-1.31.66-1.49,0-3.44-.03-5.87-.1-2.43-.07-3.68-.1-3.77-.1-.31,0-1.47.03-3.48.1-2.01.07-3.52.1-4.53.1-.88,0-1.31-.22-1.31-.66,0-.3.48-.5,1.44-.59.66-.09,1.31-.15,1.97-.2,1.01-.22,1.64-1.42,1.9-3.61.22-1.71.33-6.36.33-13.97m7.74-26.3v19.94c0,.66.2,1.05.59,1.18,1.22.44,2.89.66,4.98.66s3.65-.37,4.66-1.11c2.58-1.88,3.87-5.16,3.87-9.84,0-4.15-1.18-7.32-3.54-9.51-1.88-1.66-4.05-2.49-6.49-2.49-2.1,0-3.35.13-3.74.39-.22.13-.33.39-.33.79"/>
      <path class="cls-2" d="m14.48,157.04v2.23c0,.39-.09.64-.26.73-1.15.61-2.77.91-4.87.91-2.68,0-4.86-.63-6.53-1.88-1.87-1.4-2.81-3.42-2.81-6.05,0-1.53.36-2.9,1.07-4.11.62-1.07,1.44-1.9,2.45-2.51,1.46-.88,3.27-1.32,5.45-1.32,1.28,0,2.48.11,3.58.32.63.12,1.17.2,1.6.22.19.01.28.09.28.24,0-.12-.02.14-.07.79-.05.65-.07,1.49-.07,2.53,0,.28-.08.43-.22.43-.11,0-.18-.09-.2-.26-.09-.73-.32-1.29-.69-1.68-.36-.39-.9-.74-1.62-1.03-.89-.36-1.86-.55-2.9-.55-1.67,0-3.01.42-4.01,1.25-1.24,1.04-1.86,2.69-1.86,4.95s.65,4.03,1.94,5.46c1.3,1.43,3,2.14,5.1,2.14,1.12,0,1.77-.14,1.96-.42.1-.12.14-.3.14-.54v-1.9c0-1.16,0-1.95-.02-2.38-.01-.65-.3-1.03-.87-1.15-.19-.04-.45-.06-.79-.06-.2,0-.3-.05-.3-.16,0-.13.14-.2.42-.2.39,0,.94,0,1.64.03.7.02,1.13.03,1.3.03.2,0,.59,0,1.16-.03.57-.02.98-.03,1.21-.03.27,0,.41.07.41.2,0,.11-.08.16-.24.16s-.35.02-.58.06c-.49.09-.75.48-.78,1.15-.01.43-.02,1.24-.02,2.43"/>
      <path class="cls-2" d="m18.16,154.75v-3.56c0-2.41-.01-3.85-.04-4.29-.04-.65-.33-1.03-.87-1.15-.19-.04-.45-.06-.79-.06-.23,0-.34-.06-.34-.18s.15-.18.45-.18c.42,0,.96,0,1.64.03.68.02,1.05.03,1.13.03.23,0,.71-.01,1.45-.03.73-.02,1.2-.03,1.41-.03,1.63,0,2.88.29,3.72.87.34.23.64.57.89,1.03.32.54.49,1.12.49,1.74,0,1.58-.89,3.09-2.67,4.54,1.47,1.86,2.28,2.87,2.43,3.04.78.99,1.44,1.75,1.96,2.29.74.77,1.5,1.23,2.27,1.38.16.01.32.03.47.04.23.03.34.09.34.18,0,.13-.13.2-.38.2h-1.92c-.97,0-1.69-.13-2.17-.38-.66-.35-1.59-1.34-2.77-2.98-.58-.82-1.25-1.75-2-2.79-.08-.09-.2-.14-.36-.14h-1.76c-.11,0-.16.05-.16.16v.28c0,2.28.03,3.71.1,4.3.08.68.34,1.05.79,1.11.41.05.73.08.99.08.16,0,.24.05.24.16,0,.13-.14.2-.41.2-.46,0-1.06,0-1.81-.03-.75-.02-1.14-.03-1.16-.03-.1,0-.45.01-1.07.03-.62.02-1.09.03-1.4.03-.27,0-.4-.07-.4-.2,0-.1.15-.15.44-.18.2-.03.41-.05.61-.06.31-.07.51-.44.59-1.11.07-.53.1-1.96.1-4.31m2.39-8.12v6.16c0,.2.06.32.18.36.38.13.89.2,1.54.2s1.13-.11,1.44-.34c.8-.58,1.2-1.59,1.2-3.04,0-1.28-.36-2.26-1.09-2.94-.58-.51-1.25-.77-2.01-.77-.65,0-1.03.04-1.15.12-.07.04-.1.12-.1.24"/>
      <path class="cls-2" d="m37.41,160.9c-2.67,0-4.76-.88-6.26-2.63-1.27-1.47-1.9-3.24-1.9-5.3s.64-3.79,1.9-5.26c1.53-1.78,3.68-2.67,6.46-2.67,2.51,0,4.5.68,5.97,2.04,1.47,1.36,2.21,3.21,2.21,5.53s-.76,4.34-2.27,5.89c-1.55,1.61-3.59,2.41-6.11,2.41m.85-1.01c1.13,0,2.09-.36,2.88-1.07,1.21-1.09,1.82-2.92,1.82-5.47,0-2.21-.57-4.01-1.72-5.38-1.11-1.31-2.51-1.96-4.21-1.96-1.39,0-2.51.43-3.36,1.28-1.08,1.08-1.62,2.77-1.62,5.06,0,2.17.55,3.96,1.66,5.35,1.15,1.47,2.67,2.21,4.56,2.21"/>
      <path class="cls-2" d="m47.4,154.14v-2.96c0-2.42-.01-3.85-.04-4.29-.04-.65-.33-1.03-.87-1.15-.19-.04-.45-.06-.79-.06-.23,0-.34-.06-.34-.18s.15-.18.45-.18c.39,0,.94.01,1.65.03.71.02,1.14.03,1.31.03.15,0,.54-.01,1.16-.03.63-.02,1.07-.03,1.33-.03.3,0,.45.06.45.18s-.11.18-.32.18c-.16,0-.36.02-.59.06-.46.08-.71.47-.75,1.15-.03.45-.04,1.88-.04,4.3v2.84c0,2.46.53,4.12,1.58,4.99.67.55,1.52.83,2.53.83,1.13,0,2.07-.36,2.79-1.09.5-.5.84-1.22,1.01-2.15.11-.62.16-1.58.16-2.88v-2.54c0-2.42-.01-3.85-.04-4.3-.04-.65-.33-1.03-.87-1.15-.19-.04-.43-.06-.73-.06-.23,0-.34-.06-.34-.18s.14-.18.43-.18c.59,0,1.37.02,2.33.06.04,0,.36-.01.95-.03.59-.02,1.05-.03,1.36-.03.28,0,.43.06.43.18s-.12.18-.36.18c-.16,0-.36.02-.59.06-.46.08-.71.47-.75,1.15-.03.44-.04,1.88-.04,4.29v2.17c0,1.38-.11,2.49-.32,3.34-.3,1.17-.83,2.09-1.6,2.75-1.13.97-2.54,1.46-4.21,1.46-1.97,0-3.47-.46-4.5-1.4-1.2-1.08-1.8-2.87-1.8-5.37"/>
      <path class="cls-2" d="m63.51,154.75v-3.56c0-2.42-.01-3.85-.04-4.29-.04-.65-.33-1.03-.87-1.15-.19-.04-.45-.06-.79-.06-.23,0-.34-.06-.34-.18s.15-.18.45-.18c.4,0,.95.01,1.65.03.7.02,1.12.03,1.27.03.27,0,.75,0,1.43-.03.68-.02,1.19-.03,1.51-.03,1.7,0,2.96.39,3.77,1.15.67.63,1.01,1.44,1.01,2.41,0,1.43-.47,2.6-1.41,3.52-.94.92-2.13,1.38-3.57,1.38-.22,0-.36,0-.43-.02-.16-.03-.24-.09-.24-.18,0-.15.19-.22.57-.22.63,0,1.23-.3,1.78-.89.62-.67.93-1.49.93-2.45,0-1.31-.4-2.32-1.19-3.04-.58-.53-1.26-.79-2.02-.79-.38,0-.63.02-.76.07-.13.05-.19.18-.19.4v8.1c0,2.3.03,3.74.1,4.33.08.66.34,1.03.79,1.09.39.05.74.08,1.03.08.21,0,.32.05.32.16,0,.13-.13.2-.39.2-.51,0-1.14,0-1.87-.03-.74-.02-1.16-.03-1.27-.03-.12,0-.5.01-1.14.03-.64.02-1.11.03-1.41.03-.27,0-.41-.07-.41-.2,0-.09.15-.15.45-.18.2-.03.4-.05.61-.06.31-.07.51-.44.59-1.11.07-.53.1-1.96.1-4.31"/>
      <path class="cls-2" d="m84.83,160.9c-2.67,0-4.76-.88-6.26-2.63-1.27-1.47-1.9-3.24-1.9-5.3s.64-3.79,1.9-5.26c1.53-1.78,3.68-2.67,6.46-2.67,2.51,0,4.5.68,5.97,2.04,1.47,1.36,2.21,3.21,2.21,5.53s-.76,4.34-2.27,5.89c-1.55,1.61-3.59,2.41-6.11,2.41m.85-1.01c1.13,0,2.09-.36,2.88-1.07,1.21-1.09,1.82-2.92,1.82-5.47,0-2.21-.57-4.01-1.72-5.38-1.11-1.31-2.51-1.96-4.21-1.96-1.39,0-2.51.43-3.36,1.28-1.08,1.08-1.62,2.77-1.62,5.06,0,2.17.55,3.96,1.66,5.35,1.15,1.47,2.67,2.21,4.56,2.21"/>
      <path class="cls-2" d="m98.19,153.11v1.64c0,2.28.03,3.72.1,4.31.08.68.35,1.05.8,1.11.4.05.73.08,1.02.08.23,0,.35.05.35.16,0,.13-.15.2-.45.2-.49,0-1.09,0-1.82-.03-.73-.02-1.15-.03-1.26-.03-.15,0-.54.01-1.19.03-.64.02-1.1.03-1.39.03s-.43-.07-.43-.2c0-.09.15-.15.45-.18.19-.03.38-.05.59-.06.31-.07.51-.44.59-1.11.07-.53.1-1.96.1-4.31v-3.56c0-2.42-.01-3.85-.04-4.29-.04-.65-.33-1.03-.87-1.15-.19-.04-.45-.06-.79-.06-.23,0-.34-.05-.34-.16,0-.13.16-.2.47-.2.39,0,.94.01,1.63.03.7.02,1.12.03,1.29.03,3.28,0,5.06,0,5.35-.02.22,0,.49-.03.83-.08.26-.08.36-.12.32-.12.09,0,.14.06.14.18,0,.04-.02.14-.06.3-.04.2-.07.4-.1.61-.03.46-.06,1.01-.1,1.64-.03.19-.1.28-.2.28-.12,0-.19-.11-.2-.32,0-.33-.04-.59-.12-.76-.18-.39-.62-.59-1.34-.6l-3.13-.06c-.12,0-.18.09-.18.28v5.02c0,.12.05.18.14.18h2.6c.57,0,.89,0,.95-.02.39-.04.67-.16.83-.36.11-.13.2-.2.26-.2.08,0,.12.06.12.18,0,.03-.02.18-.06.45-.04.31-.07.58-.1.81-.05.55-.08,1.05-.08,1.48,0,.26-.07.38-.2.38-.08,0-.14-.13-.18-.38-.04-.18-.07-.35-.1-.53-.15-.42-.49-.66-1.04-.73-.32-.04-1.33-.06-3.01-.06-.09,0-.14.06-.14.18"/>
      <path class="cls-2" d="m110.36,154.75v-3.56c0-2.42-.01-3.85-.04-4.29-.04-.65-.27-1.03-.69-1.13-.23-.05-.46-.08-.7-.08s-.36-.07-.36-.2c0-.11.16-.16.49-.16.27,0,.73.01,1.39.03.66.02,1.07.03,1.24.03.15,0,.53,0,1.13-.03.61-.02,1.05-.03,1.34-.03s.43.05.43.16c0,.14-.1.2-.29.2s-.4.02-.63.06c-.45.08-.7.46-.74,1.15-.03.45-.04,1.88-.04,4.29v3.56c0,2.42.03,3.89.08,4.43.05.59.32.93.8.99.39.05.73.08,1.02.08.21,0,.32.05.32.16,0,.13-.13.2-.39.2-.51,0-1.14,0-1.87-.03-.74-.02-1.16-.03-1.29-.03s-.5.01-1.14.03c-.64.02-1.11.03-1.41.03-.27,0-.41-.07-.41-.2,0-.09.15-.15.45-.18.2-.03.4-.05.61-.06.32-.07.52-.4.59-1,.07-.6.1-2.07.1-4.42"/>
      <path class="cls-2" d="m118.46,149.36l.22,8.5c.04,1.35.28,2.1.71,2.25.04.01.3.05.79.1.41.05.61.12.61.2,0,.13-.15.2-.46.2-.51,0-1.05,0-1.6-.03-.55-.02-.86-.03-.91-.03.01,0-.24,0-.77.03-.53.02-1,.03-1.42.03-.3,0-.45-.07-.45-.2,0-.1.17-.15.53-.18.24-.03.48-.05.71-.08.26-.08.42-.3.51-.65.07-.31.11-.93.12-1.86l.18-11.99c.01-.46.1-.69.26-.69.11,0,.36.21.75.63,1.11,1.19,3.2,3.35,6.28,6.5,1.38,1.43,2.86,2.97,4.45,4.62h.1l-.2-9.09c-.01-.5-.04-.84-.08-1.03-.11-.4-.31-.67-.61-.79-.2-.08-.56-.12-1.07-.12-.22,0-.32-.06-.32-.18s.18-.18.53-.18c.4,0,.89.01,1.46.03.57.02.9.03.99.03.01,0,.25-.01.71-.03.46-.02.88-.03,1.27-.03.31,0,.47.06.47.18s-.12.18-.36.18c-.68,0-1.09.22-1.24.67-.07.24-.11.62-.12,1.11l-.22,12.78c-.01.42-.1.63-.26.63-.15,0-.38-.15-.69-.44-1.3-1.28-3.29-3.27-5.97-5.95-.92-.9-1.95-1.98-3.1-3.22-.58-.63-1.15-1.26-1.72-1.88h-.06Z"/>
      <path class="cls-2" d="m136.56,160.9c-1.17,0-2.16-.18-2.96-.53-.26-.11-.39-.34-.39-.69,0-.73.03-1.61.1-2.65.03-.35.11-.53.24-.53s.2.11.2.34c0,.28.06.63.18,1.03.41,1.36,1.37,2.05,2.9,2.05.85,0,1.53-.25,2.04-.75.45-.44.67-.96.67-1.56,0-1.12-.66-2.2-1.98-3.24l-.93-.73c-2-1.57-3-3.17-3-4.8,0-1.12.43-2.04,1.3-2.75.86-.72,1.99-1.07,3.38-1.07.88,0,1.77.11,2.69.34.19.05.28.13.28.24,0-.03-.01.21-.04.72-.03.51-.04,1.08-.04,1.71,0,.4-.07.61-.22.61-.14,0-.2-.12-.2-.36,0-.45-.18-.89-.53-1.34-.53-.66-1.26-.99-2.21-.99-.74,0-1.33.19-1.76.58-.43.38-.65.89-.65,1.51,0,.47.15.92.46,1.35.3.43.87.95,1.69,1.57l.57.43c1.21.92,2.07,1.76,2.57,2.54.5.78.75,1.65.75,2.62,0,1.53-.64,2.7-1.9,3.52-.85.55-1.92.83-3.22.83"/>
      <path class="cls-2" d="m147.23,154.75v-8.3l-3.02.08c-1.07.03-1.72.22-1.96.59-.17.26-.29.49-.34.71-.04.16-.11.24-.22.24-.12,0-.18-.11-.18-.32,0-.37.14-1.14.43-2.33.07-.26.15-.38.24-.38.04,0,.15.04.32.11.18.07.36.12.55.13.73.07,1.4.1,2.02.1h8.02c.53,0,.99-.03,1.4-.09.41-.06.59-.09.55-.09.11,0,.16.14.16.42,0,.13-.01.51-.03,1.13-.02.62-.04,1.03-.05,1.23-.01.2-.07.3-.16.3-.12,0-.2-.14-.22-.4l-.02-.22c-.07-.72-.86-1.09-2.39-1.13l-2.55-.06v8.3c0,2.3.03,3.74.1,4.33.08.66.34,1.03.79,1.09.39.05.73.08,1.03.08.22,0,.32.05.32.16,0,.13-.13.2-.39.2-.51,0-1.14,0-1.88-.03-.74-.02-1.17-.03-1.29-.03s-.5.01-1.14.03c-.64.02-1.11.03-1.41.03-.27,0-.4-.07-.4-.2,0-.09.15-.15.45-.18.2-.03.4-.05.61-.06.31-.07.51-.44.59-1.11.07-.59.1-2.03.1-4.31"/>
      <path class="cls-2" d="m156.91,154.75v-3.56c0-2.42-.01-3.85-.04-4.29-.04-.65-.27-1.03-.69-1.13-.23-.05-.46-.08-.7-.08s-.35-.07-.35-.2c0-.11.16-.16.48-.16.27,0,.73.01,1.39.03.66.02,1.07.03,1.25.03.15,0,.53,0,1.13-.03.61-.02,1.05-.03,1.34-.03s.43.05.43.16c0,.14-.1.2-.29.2s-.4.02-.63.06c-.45.08-.7.46-.74,1.15-.03.45-.04,1.88-.04,4.29v3.56c0,2.42.03,3.89.08,4.43.05.59.32.93.8.99.39.05.73.08,1.02.08.21,0,.32.05.32.16,0,.13-.13.2-.38.2-.51,0-1.14,0-1.87-.03-.74-.02-1.16-.03-1.29-.03s-.5.01-1.14.03c-.64.02-1.11.03-1.41.03-.27,0-.41-.07-.41-.2,0-.09.15-.15.45-.18.2-.03.4-.05.61-.06.32-.07.52-.4.59-1,.07-.6.1-2.07.1-4.42"/>
      <path class="cls-2" d="m166.79,154.75v-8.3l-3.02.08c-1.07.03-1.72.22-1.96.59-.17.26-.29.49-.34.71-.04.16-.11.24-.22.24-.12,0-.18-.11-.18-.32,0-.37.14-1.14.43-2.33.07-.26.15-.38.24-.38.04,0,.15.04.32.11.18.07.36.12.55.13.73.07,1.4.1,2.02.1h8.02c.53,0,.99-.03,1.4-.09.41-.06.59-.09.55-.09.11,0,.16.14.16.42,0,.13-.01.51-.03,1.13-.02.62-.04,1.03-.05,1.23-.01.2-.07.3-.16.3-.12,0-.2-.14-.22-.4l-.02-.22c-.07-.72-.86-1.09-2.39-1.13l-2.55-.06v8.3c0,2.3.03,3.74.1,4.33.08.66.34,1.03.79,1.09.39.05.73.08,1.03.08.22,0,.32.05.32.16,0,.13-.13.2-.39.2-.51,0-1.14,0-1.88-.03-.74-.02-1.17-.03-1.29-.03s-.5.01-1.14.03c-.64.02-1.11.03-1.41.03-.27,0-.4-.07-.4-.2,0-.09.15-.15.45-.18.2-.03.4-.05.61-.06.31-.07.51-.44.59-1.11.07-.59.1-2.03.1-4.31"/>
      <path class="cls-2" d="m175.61,154.14v-2.96c0-2.42-.01-3.85-.04-4.29-.04-.65-.33-1.03-.87-1.15-.19-.04-.45-.06-.79-.06-.23,0-.34-.06-.34-.18s.15-.18.45-.18c.39,0,.94.01,1.65.03.71.02,1.14.03,1.31.03.15,0,.54-.01,1.16-.03.63-.02,1.07-.03,1.33-.03.3,0,.45.06.45.18s-.11.18-.32.18c-.16,0-.36.02-.59.06-.46.08-.71.47-.75,1.15-.03.45-.04,1.88-.04,4.3v2.84c0,2.46.53,4.12,1.58,4.99.68.55,1.52.83,2.53.83,1.13,0,2.07-.36,2.79-1.09.5-.5.84-1.22,1.01-2.15.11-.62.16-1.58.16-2.88v-2.54c0-2.42-.01-3.85-.04-4.3-.04-.65-.33-1.03-.87-1.15-.19-.04-.43-.06-.73-.06-.23,0-.34-.06-.34-.18s.14-.18.43-.18c.59,0,1.37.02,2.33.06.04,0,.36-.01.95-.03.59-.02,1.05-.03,1.36-.03.28,0,.43.06.43.18s-.12.18-.36.18c-.16,0-.36.02-.59.06-.46.08-.71.47-.75,1.15-.03.44-.04,1.88-.04,4.29v2.17c0,1.38-.11,2.49-.32,3.34-.3,1.17-.83,2.09-1.6,2.75-1.13.97-2.54,1.46-4.21,1.46-1.97,0-3.47-.46-4.5-1.4-1.2-1.08-1.8-2.87-1.8-5.37"/>
      <path class="cls-2" d="m194.44,154.75v-8.3l-3.02.08c-1.07.03-1.72.22-1.96.59-.17.26-.29.49-.34.71-.04.16-.11.24-.22.24-.12,0-.18-.11-.18-.32,0-.37.14-1.14.43-2.33.07-.26.15-.38.24-.38.04,0,.15.04.32.11.17.07.36.12.55.13.73.07,1.4.1,2.02.1h8.02c.53,0,.99-.03,1.4-.09.41-.06.59-.09.55-.09.11,0,.16.14.16.42,0,.13-.01.51-.03,1.13-.02.62-.04,1.03-.05,1.23-.01.2-.07.3-.16.3-.12,0-.2-.14-.22-.4l-.02-.22c-.07-.72-.86-1.09-2.39-1.13l-2.55-.06v8.3c0,2.3.03,3.74.1,4.33.08.66.34,1.03.79,1.09.39.05.73.08,1.03.08.22,0,.32.05.32.16,0,.13-.13.2-.39.2-.51,0-1.14,0-1.88-.03-.74-.02-1.17-.03-1.29-.03s-.5.01-1.14.03c-.64.02-1.11.03-1.41.03-.27,0-.4-.07-.4-.2,0-.09.15-.15.45-.18.2-.03.4-.05.61-.06.31-.07.51-.44.59-1.11.07-.59.1-2.03.1-4.31"/>
      <path class="cls-2" d="m204.12,154.75v-3.56c0-2.42-.01-3.85-.04-4.29-.04-.65-.27-1.03-.69-1.13-.23-.05-.46-.08-.7-.08s-.36-.07-.36-.2c0-.11.16-.16.49-.16.27,0,.73.01,1.39.03.66.02,1.07.03,1.25.03.15,0,.53,0,1.13-.03.61-.02,1.05-.03,1.34-.03s.43.05.43.16c0,.14-.1.2-.29.2s-.4.02-.63.06c-.45.08-.7.46-.74,1.15-.03.45-.04,1.88-.04,4.29v3.56c0,2.42.03,3.89.08,4.43.05.59.32.93.8.99.39.05.73.08,1.02.08.21,0,.32.05.32.16,0,.13-.13.2-.38.2-.51,0-1.14,0-1.87-.03-.74-.02-1.16-.03-1.29-.03s-.5.01-1.14.03c-.64.02-1.11.03-1.41.03-.27,0-.41-.07-.41-.2,0-.09.15-.15.45-.18.2-.03.4-.05.61-.06.32-.07.52-.4.59-1,.07-.6.1-2.07.1-4.42"/>
      <path class="cls-2" d="m217.24,160.9c-2.67,0-4.76-.88-6.26-2.63-1.27-1.47-1.9-3.24-1.9-5.3s.64-3.79,1.9-5.26c1.53-1.78,3.68-2.67,6.46-2.67,2.51,0,4.5.68,5.97,2.04,1.47,1.36,2.21,3.21,2.21,5.53s-.76,4.34-2.27,5.89c-1.55,1.61-3.59,2.41-6.11,2.41m.85-1.01c1.13,0,2.09-.36,2.88-1.07,1.21-1.09,1.82-2.92,1.82-5.47,0-2.21-.57-4.01-1.72-5.38-1.11-1.31-2.51-1.96-4.21-1.96-1.39,0-2.51.43-3.36,1.28-1.08,1.08-1.62,2.77-1.62,5.06,0,2.17.55,3.96,1.66,5.35,1.15,1.47,2.67,2.21,4.56,2.21"/>
      <path class="cls-2" d="m229,149.36l.22,8.5c.04,1.35.28,2.1.71,2.25.04.01.3.05.79.1.41.05.61.12.61.2,0,.13-.15.2-.46.2-.51,0-1.05,0-1.6-.03-.55-.02-.86-.03-.91-.03.01,0-.24,0-.77.03-.53.02-1,.03-1.42.03-.3,0-.45-.07-.45-.2,0-.1.17-.15.53-.18.24-.03.48-.05.71-.08.26-.08.42-.3.51-.65.07-.31.11-.93.12-1.86l.18-11.99c.01-.46.1-.69.26-.69.11,0,.36.21.75.63,1.11,1.19,3.2,3.35,6.28,6.5,1.38,1.43,2.86,2.97,4.45,4.62h.1l-.2-9.09c-.01-.5-.04-.84-.08-1.03-.11-.4-.31-.67-.61-.79-.2-.08-.56-.12-1.07-.12-.22,0-.32-.06-.32-.18s.18-.18.53-.18c.41,0,.89.01,1.46.03.57.02.9.03.99.03.01,0,.25-.01.71-.03.46-.02.88-.03,1.28-.03.31,0,.46.06.46.18s-.12.18-.36.18c-.68,0-1.09.22-1.23.67-.07.24-.11.62-.12,1.11l-.22,12.78c-.01.42-.1.63-.26.63-.15,0-.38-.15-.69-.44-1.3-1.28-3.29-3.27-5.97-5.95-.92-.9-1.95-1.98-3.1-3.22-.58-.63-1.15-1.26-1.72-1.88h-.06Z"/>
      <path class="cls-2" d="m247.1,160.9c-1.17,0-2.16-.18-2.96-.53-.26-.11-.39-.34-.39-.69,0-.73.03-1.61.1-2.65.03-.35.11-.53.24-.53s.2.11.2.34c0,.28.06.63.18,1.03.41,1.36,1.37,2.05,2.9,2.05.85,0,1.53-.25,2.04-.75.45-.44.67-.96.67-1.56,0-1.12-.66-2.2-1.98-3.24l-.93-.73c-2-1.57-3-3.17-3-4.8,0-1.12.43-2.04,1.3-2.75.86-.72,1.99-1.07,3.38-1.07.88,0,1.77.11,2.69.34.19.05.28.13.28.24,0-.03-.01.21-.04.72-.03.51-.04,1.08-.04,1.71,0,.4-.07.61-.22.61-.14,0-.2-.12-.2-.36,0-.45-.18-.89-.53-1.34-.53-.66-1.26-.99-2.21-.99-.74,0-1.33.19-1.76.58-.43.38-.65.89-.65,1.51,0,.47.15.92.46,1.35.3.43.87.95,1.69,1.57l.57.43c1.21.92,2.07,1.76,2.57,2.54.5.78.75,1.65.75,2.62,0,1.53-.63,2.7-1.9,3.52-.85.55-1.92.83-3.22.83"/>
      <rect class="cls-1" x="0" width="252.22" height="160.9"/>
    </g>
  </g>
</svg>