<?xml version="1.0" encoding="UTF-8"?>
<svg id="Layer_2" data-name="Layer 2" xmlns="http://www.w3.org/2000/svg" viewBox="0 0 233.86 233.86">
  <defs>
    <style>
      .cls-1 {
        fill: #000;
      }
    </style>
  </defs>
  <g id="Layer_1-2" data-name="Layer 1">
    <path class="cls-1" d="m116.64,233.86C52.09,233.78-.06,181.34,0,116.57.06,52.08,52.58-.07,117.38,0c64.45.07,116.62,52.69,116.48,117.47-.14,64.35-52.63,116.47-117.21,116.39Zm3.98-60.19c0-8.6,0-16.25,0-23.9,0-34.99-.03-69.99.06-104.98,0-2.73-.56-3.65-3.47-3.66-3.19,0-2.69,1.85-2.69,3.73,0,41.77,0,83.54-.02,125.3,0,1.12.31,2.34-.45,3.55-.38-.47-.64-.7-.78-1-8.71-18.06-23.89-27.48-42.72-32.03-.84-.2-1.51-.75-2.22.49-1.86,3.28-1.28,4.94,2.33,5.94.87.24,1.75.45,2.6.72,11.2,3.62,21.56,8.48,28.75,18.43,4.84,6.7,8.86,13.87,11.46,21.65,1.19,3.55,3.6,2.02,5.5,2.56,1.89.53,1.67-1.52,2.06-2.41,1.96-4.55,4.02-9.05,6.42-13.39,4.7-8.49,10.42-15.98,19.29-20.67,5.81-3.07,11.85-5.38,18.15-7.13.92-.26,2.36-.04,2.6-1.64.49-3.32-1.51-5.09-4.76-4.17-.65.19-1.31.36-1.95.56-12.65,3.97-24.53,9.18-32.52,20.51-2.46,3.49-4.73,7.12-7.65,11.55Z"/>
  </g>
</svg>