<?xml version="1.0" encoding="UTF-8"?>
<svg id="Layer_2" data-name="Layer 2" xmlns="http://www.w3.org/2000/svg" viewBox="0 0 273.31 61.67">
  <defs>
    <style>
      .cls-1 {
        fill: #222;
      }
    </style>
  </defs>
  <g id="Layer_1-2" data-name="Layer 1">
    <g>
      <path class="cls-1" d="m45.01,37.69c-2.84,5.76-7.06,8.64-12.66,8.64h-1.35c-2.5,0-4.91-.73-7.25-2.19-2.56-1.85-4.42-4-5.6-6.45-.99-2.07-1.48-4.36-1.48-6.86v-.17c0-2.15.29-4.06.87-5.73.18-.53.4-1.04.64-1.52,2.92-5.73,7.3-8.59,13.14-8.59,2.3,0,4.49.5,6.57,1.51,3.93,2.26,6.5,5.12,7.72,8.6.01.03.02.06.03.08h16.93s0-.06-.02-.08c-.96-5.39-3.51-10.44-7.65-15.17C47.96,3.26,40.27,0,31.85,0c-6.32,0-12.11,1.63-17.36,4.89C6.66,10.15,2,16.83.52,24.94c-.35,1.89-.52,3.85-.52,5.9,0,2.35.27,4.64.8,6.86,1.01,4.24,2.99,8.25,5.94,12.01,6.99,7.97,15.25,11.96,24.77,11.96,5.36,0,10.3-1.24,14.82-3.71,8.84-5.44,14.16-12.2,15.96-20.27,0-.01,0-.02,0-.03h-17.27s-.01.02-.02.03Z"/>
      <path class="cls-1" d="m94.07,1.35h-15.17l-12.77,31.92-1.56,3.91-9.26,23.13h17.86l3.11-8.42h20.52l2.99,8.42h17.86L94.07,1.35Zm-13.1,37.91l5.81-15.67,5.56,15.67h-11.37Z"/>
      <path class="cls-1" d="m160.94,27.97v-.17c4.21-2.61,6.32-6.43,6.32-11.46,0-3.67-1.01-6.77-3.03-9.26-3.09-3.82-8.62-5.73-16.6-5.73h-28.22v58.97h32.6c1.97,0,3.98-.33,6.03-1.01,7.86-3.12,11.8-8.57,11.8-16.34v-1.01c0-6.88-2.96-11.54-8.89-13.98Zm-25.23-14.15h8.89c1.32,0,2.33.07,3.03.21,2.81.37,4.21,1.9,4.21,4.6,0,3.88-1.66,5.81-4.98,5.81h-11.16v-10.61Zm17.53,30.16c-.9,2.22-2.61,3.33-5.14,3.33h-12.39v-11.08h11.46c4.33,0,6.48,1.66,6.48,4.97,0,.76-.14,1.68-.42,2.78Z"/>
      <path class="cls-1" d="m249.72,1.34h-15.17l-20,50-3.59,8.97h0s17.86.01,17.86.01l3.12-8.43h20.52l2.99,8.43h17.86L249.72,1.34Zm-13.1,37.92l5.81-15.67,5.56,15.67h-11.38Z"/>
      <path class="cls-1" d="m214.55,51.35c-2.18-2.58-4.69-5.68-7.51-9.31,10.14-3.31,15.21-9.74,15.21-19.29v-1.01c0-4.69-1.29-8.68-3.88-11.97-3.4-5.61-9.91-8.42-19.55-8.42h-27.21v58.97h16.34v-17.02h1.26c6.88,9.6,11.68,15.28,14.41,17.02h19.8c-1.85-1.17-4.81-4.16-8.88-8.97Zm-9.82-23.88c-.78,1.24-3.82,1.85-9.1,1.85h-7.67v-14.16h8.17c6.63,0,9.94,2.59,9.94,7.75,0,1.63-.45,3.14-1.35,4.55Z"/>
    </g>
  </g>
</svg>