<?xml version="1.0" encoding="UTF-8"?>
<svg id="Layer_2" data-name="Layer 2" xmlns="http://www.w3.org/2000/svg" viewBox="0 0 241.34 241.33">
  <defs>
    <style>
      .cls-1 {
        fill: #222;
      }
    </style>
  </defs>
  <g id="Layer_1-2" data-name="Layer 1">
    <path class="cls-1" d="m120.67,0C54.03,0,0,54.02,0,120.66s54.03,120.67,120.67,120.67,120.67-54.02,120.67-120.67S187.31,0,120.67,0Zm25.32,141.25c-3.4,1.41-7.27-1.02-7.44-4.81-.15-3.22-.06-6.45-.07-9.68,0-3.39.01-6.77,0-10.16-.01-2.27-.06-4.54.95-6.68-.07-.04-.15-.08-.22-.12-.24.24-.48.49-.72.73-12.24,12.23-24.47,24.45-36.69,36.7-1.54,1.54-3.24,2.5-5.48,2.05-4.24-.86-5.8-5.77-2.93-9.16.31-.37.66-.7.99-1.04,12.1-12.1,24.19-24.19,36.29-36.29.26-.26.52-.53.79-.79-3.29,1.23-6.66.75-9.98.78-5.28.04-10.56,0-15.83-.03-2.77-.01-4.96-1.43-5.75-3.67-1.16-3.3,1.26-6.9,4.89-7.07,2.9-.13,5.82-.05,8.72-.05h29.64c4.04,0,6.26,2.23,6.25,6.29,0,12.44,0,24.87.01,37.3,0,2.78-1.19,4.77-3.42,5.7Z"/>
  </g>
</svg>